<mxfile host="app.diagrams.net" modified="2023-08-19T14:20:27.020Z" agent="Mozilla/5.0 (Macintosh; Intel Mac OS X 10_15_7) AppleWebKit/537.36 (KHTML, like Gecko) Chrome/115.0.0.0 Safari/537.36" etag="0Qm38ROMkXBa9jnU7Q8Y" version="21.6.8" type="github">
  <diagram name="第 1 页" id="W33UbnDHjYkF8U9K14Nu">
    <mxGraphModel dx="2210" dy="788" grid="1" gridSize="10" guides="1" tooltips="1" connect="1" arrows="1" fold="1" page="1" pageScale="1" pageWidth="827" pageHeight="1169" math="0" shadow="0">
      <root>
        <mxCell id="0" />
        <mxCell id="1" parent="0" />
        <mxCell id="atDhAGsUYtWK8VnYLnzi-80" value="&lt;br&gt;&lt;br&gt;招商活动" style="rounded=0;whiteSpace=wrap;html=1;fillColor=#fff2cc;strokeColor=#d6b656;strokeWidth=2;opacity=50;" vertex="1" parent="1">
          <mxGeometry x="730" y="664" width="114" height="360" as="geometry" />
        </mxCell>
        <mxCell id="dMnPdU8_rPsaozqAxNBG-15" value="" style="rounded=0;whiteSpace=wrap;html=1;fillColor=#e1d5e7;strokeColor=#9673a6;strokeWidth=2;opacity=50;" parent="1" vertex="1">
          <mxGeometry x="107.5" y="40" width="102.5" height="250" as="geometry" />
        </mxCell>
        <mxCell id="dMnPdU8_rPsaozqAxNBG-1" value="商品邀约记录" style="swimlane;whiteSpace=wrap;html=1;" parent="1" vertex="1">
          <mxGeometry x="380" y="120" width="177" height="201" as="geometry" />
        </mxCell>
        <mxCell id="dMnPdU8_rPsaozqAxNBG-2" value="" style="shape=cylinder3;whiteSpace=wrap;html=1;boundedLbl=1;backgroundOutline=1;size=15;" parent="dMnPdU8_rPsaozqAxNBG-1" vertex="1">
          <mxGeometry x="30" y="128" width="40" height="40" as="geometry" />
        </mxCell>
        <mxCell id="dMnPdU8_rPsaozqAxNBG-3" value="" style="shape=cylinder3;whiteSpace=wrap;html=1;boundedLbl=1;backgroundOutline=1;size=15;" parent="dMnPdU8_rPsaozqAxNBG-1" vertex="1">
          <mxGeometry x="100" y="128" width="40" height="40" as="geometry" />
        </mxCell>
        <mxCell id="dMnPdU8_rPsaozqAxNBG-4" value="任务维度表" style="rounded=1;whiteSpace=wrap;html=1;strokeColor=none;opacity=0;" parent="dMnPdU8_rPsaozqAxNBG-1" vertex="1">
          <mxGeometry x="10" y="161" width="70" height="30" as="geometry" />
        </mxCell>
        <mxCell id="dMnPdU8_rPsaozqAxNBG-5" value="商家维度表" style="rounded=1;whiteSpace=wrap;html=1;strokeColor=none;opacity=0;" parent="dMnPdU8_rPsaozqAxNBG-1" vertex="1">
          <mxGeometry x="65" y="161" width="110" height="30" as="geometry" />
        </mxCell>
        <mxCell id="dMnPdU8_rPsaozqAxNBG-19" value="IC" style="image;aspect=fixed;perimeter=ellipsePerimeter;html=1;align=center;shadow=0;dashed=0;spacingTop=3;image=img/lib/active_directory/list.svg;" parent="dMnPdU8_rPsaozqAxNBG-1" vertex="1">
          <mxGeometry x="70" y="39" width="23.1" height="33" as="geometry" />
        </mxCell>
        <mxCell id="dMnPdU8_rPsaozqAxNBG-11" value="" style="edgeStyle=orthogonalEdgeStyle;rounded=0;orthogonalLoop=1;jettySize=auto;html=1;" parent="1" source="dMnPdU8_rPsaozqAxNBG-6" edge="1">
          <mxGeometry relative="1" as="geometry">
            <mxPoint x="160" y="150" as="targetPoint" />
          </mxGeometry>
        </mxCell>
        <mxCell id="dMnPdU8_rPsaozqAxNBG-6" value="BPMS审批通过" style="shape=umlActor;verticalLabelPosition=bottom;verticalAlign=top;html=1;outlineConnect=0;" parent="1" vertex="1">
          <mxGeometry x="150" y="50" width="20" height="40" as="geometry" />
        </mxCell>
        <mxCell id="dMnPdU8_rPsaozqAxNBG-9" value="棱镜diff" style="image;aspect=fixed;perimeter=ellipsePerimeter;html=1;align=center;shadow=0;dashed=0;spacingTop=3;image=img/lib/active_directory/domain_controller.svg;" parent="1" vertex="1">
          <mxGeometry x="142.5" y="360" width="35" height="50" as="geometry" />
        </mxCell>
        <mxCell id="dMnPdU8_rPsaozqAxNBG-10" value="棱镜" style="image;aspect=fixed;perimeter=ellipsePerimeter;html=1;align=center;shadow=0;dashed=0;spacingTop=3;image=img/lib/active_directory/domain_controller.svg;" parent="1" vertex="1">
          <mxGeometry x="141.25" y="200" width="35" height="50" as="geometry" />
        </mxCell>
        <mxCell id="dMnPdU8_rPsaozqAxNBG-25" value="" style="edgeStyle=orthogonalEdgeStyle;rounded=0;orthogonalLoop=1;jettySize=auto;html=1;" parent="1" source="dMnPdU8_rPsaozqAxNBG-24" target="dMnPdU8_rPsaozqAxNBG-10" edge="1">
          <mxGeometry relative="1" as="geometry" />
        </mxCell>
        <UserObject label="schedulerX" link="https://www.draw.io" id="dMnPdU8_rPsaozqAxNBG-24">
          <mxCell style="text;html=1;strokeColor=none;fillColor=none;whiteSpace=wrap;align=center;verticalAlign=middle;fontColor=#0000EE;fontStyle=4;" parent="1" vertex="1">
            <mxGeometry x="128.75" y="130" width="60" height="40" as="geometry" />
          </mxCell>
        </UserObject>
        <mxCell id="dMnPdU8_rPsaozqAxNBG-26" value="" style="edgeStyle=orthogonalEdgeStyle;rounded=0;orthogonalLoop=1;jettySize=auto;html=1;exitX=1;exitY=0.5;exitDx=0;exitDy=0;" parent="1" source="dMnPdU8_rPsaozqAxNBG-15" edge="1">
          <mxGeometry relative="1" as="geometry">
            <mxPoint x="169" y="180" as="sourcePoint" />
            <mxPoint x="380" y="165" as="targetPoint" />
          </mxGeometry>
        </mxCell>
        <mxCell id="dMnPdU8_rPsaozqAxNBG-27" value="" style="edgeStyle=orthogonalEdgeStyle;rounded=0;orthogonalLoop=1;jettySize=auto;html=1;entryX=0;entryY=0.75;entryDx=0;entryDy=0;exitX=1;exitY=0.5;exitDx=0;exitDy=0;" parent="1" source="dMnPdU8_rPsaozqAxNBG-9" target="dMnPdU8_rPsaozqAxNBG-1" edge="1">
          <mxGeometry relative="1" as="geometry">
            <mxPoint x="179" y="190" as="sourcePoint" />
            <mxPoint x="179" y="220" as="targetPoint" />
          </mxGeometry>
        </mxCell>
        <mxCell id="atDhAGsUYtWK8VnYLnzi-2" value="运营小二" style="shape=image;verticalLabelPosition=bottom;labelBackgroundColor=default;verticalAlign=top;aspect=fixed;imageAspect=0;image=data:image/png,iVBORw0KGgoAAAANSUhEUgAAAMgAAADICAYAAACtWK6eAAAAAXNSR0IArs4c6QAAEjNJREFUeF7tnQvwdVMZxh9DdFERRRIjlyapSJFSqSjXEdVUGEZJ0tVdxkTTSCiV6F4jRTfKiOiGlESikJIwlEiJlKQymh/rTMf3nXP+e62991lr7/28M3vO32e9a73redezL+vyvkvIYgSMwFQEljA2RsAITEfABPHoMAIzEDBBPDyMgAniMWAE0hDwEyQNN2sNBAETZCCOdjfTEDBB0nCz1kAQMEEG4mh3Mw0BEyQNN2sNBAETZCCOdjfTEDBB0nCz1kAQMEEG4mh3Mw0BEyQNN2sNBAETZCCOdjfTEDBB0nCz1kAQMEEG4mh3Mw0BEyQNN2sNBAETZCCOdjfTEDBB0nCz1kAQMEEG4mh3Mw0BEyQNN2sNBAETZCCOdjfTEDBB0nCz1kAQMEHKcfTyklYP5two6Y5yTBuuJSbI/H2/hqRtJK0bCLFa+H30Iqb8XRJEuSn8Xi3pLEk3zN/k4bZogrTv+2UkvShc20pav2aTv5B0pqQLwnVvzfqsPgMBE6S94bGmpH0k7SjpiS01c4ukb0j6sKTrWmpj0NWaIM27nycGxOB6QvPVT6zxtkASiOInSoOgmyANgilpZ0n7Snp2s9VWru0yScdKOrmyhgvORMAEaWaA8KT4RHidaqbGerXw2rWXpD/Xq8baJkj9MfAcSSdJelr9qhqtgVmvXSX9vNFaB1aZCVLP4a+SdGq9KlrVvl8SNn6z1VZ6XLkJku5cPsJ53++CYOtHumBoaTaaIGkeeYOkz6WpZtPaXdKJ2VrvaMMmSLzjnifponi1IjSw/eIiLOmIESZInKPWkXRNnEpxpdeW9LvirCrUIBOkumNWkHSOJGatmpJ/SPqxpOvHLup+yti1qaRlm2pQ0iWStpL01wbr7G1VJkg114ITM0HbVys+sxTTrmdL+oGk8yvWt5mkzcPAbmIR8nRJO1Rse9DFTJBq7t9b0gnVik4txV6p48P138S6lpL0NklvD0+YxGoeUKNPLG5aZiBggiw8PB4ZXkuevnDRqSUOD8S4vUYd46orBqIcVqO+qyRtJOmeGnX0XtUEWdjF+0s6ZuFiU0u8S9JHa+jPUqVuNiimCn37UKryEPRMkNle5k7NRy2HnFKE7Se/SVGM0KENtpWkCJMDPEWaerKl2FC0jgky2z3vkfTeRA+uIonzGvMQ2ro5sSH6+L5E3d6rmSCzXfxbSawbxMp24dRfrF6d8rR5RkIF9PGpCXqDUDFBprv5ZZK+nzAK+CBPfeokNPcQFdpO+XCnr+fWbbyP+ibIdK8eLemASKczlbtxxnd6vpnYSsJCY4zQ14NiFIZS1gSZ7mmCIzwrciCUsGs2ZZcxfd0gsq+DKG6CTHYzd+DYIAgcd2VG6L7MI4fFRJ4isSvu9NkhhRZxngkyeTSzUn1c5EBnreTASJ22imMLaxwxQp9Z6beMIWCCTB4OH5f0lsiRsnXYYxWp1kpxbCHIXIzQ57fGKAyhrAky2csMLgZZVbm74R23VdudVY6dwo+KqIg+E9jO4ifIgmPgSknrLVjq/wXYBs8W8pKEHcNbRhjE3qxnRJQfRFE/QSa7+S5Ji8bKnTUgSnw9YfcxO3arCrGAH1O18FDKmSCLe/pxCesYJW7620/SByMHMn13VHm/Ys0cNgSXvjxyYBF/t7TQOhyIIoBcjLAWwpqIJSDgJ8jiQ4FBwppGjJggMWh1qKwJsriz2K4RG7KzL69Y9N1b3/2KteAtjGlbThJWlT58pP8zclq4KjadLucnyGT3ccgpZgt4H6Z56XNp8YWzk8sEmeyC70raIsI7d0oix2BJwmzUchEG0edXRJQfRFETZLKbCStKeNEY2UTST2MUWiybEv2RPu/Rok2drNoEmew2Dh1x+ChGDpZ0VIxCi2Wx5cjI+nMe9Io0dX7FTZDJWHMOJHY9oKTvkNhtJqBAn6+Y39DrRksmyHQ/cR4k9mTebiGZTk7vY0NsFHf6ulZOo0tt2wSZ7hm2abBdI0a4A79AEjtpcwj7xy5M2HRIX2OPF+fo39zbNEGmQ75NYmSSnO/yqUEb6Ou35z76OtCgCTLdSSwUcgQ1JZVzm9EUp1mcGmXxTyEwnkOQTkDWBJl9F/uUpD0Tb3TziKo4Mq1OdEX6SEZciwkSPQaY2SH06NLRmg8qsHjIImKbQhupuT7uDYEmPHs1xUN+giw8dAkOzetLqhBdJHb7fNW2qLtOmmf6tm/VxoZYzgRZ2OuEHuUpErNtY7xWUjG/OuFsxkKW1U1BzVYUwhQ5HdsMpE2QhYbhg///CEmHVCs6tRRhTFmfOLlmPbtIYq2DjFN1hD4dWqeCIeiaINW8vKqk8xpaTPtZCMlzmiQCJVQRAkjwxCDqSBM5Eq+VRFq3P1ZpfMhlTJDq3mdwfqt68UoliYBInbzucPGxjU/48B5dRG0n3m+T4nWPimiaIBWBCsX4oO16Rib6UCcrVRxiHS9tgsQ78GMhP2C8Zn4NUsHVmZHL34M5W2CCpAFOBJNXpqlm0yLCCd8xlggETJAIsBYp+hVJr01Xn6vmlyXtNNcWe9KYCVLPkWzRKD3XODayncSSgIAJkgDaIirbSzq9fjWt1IBtKXkLWzGmi5WaIM14jTMgnOmOiYTSTMuTa7lG0hvD2ZA22+l93SZIcy5mMZEpVFKg5RSmcI+V9IecRvSlbROkeU8S3QSSvKb5qmfW+PWwvnHRnNvtdXMmSHvuhSAQBcK0KRCCpwYEsTSMgAnSMKATqiMHORsL+X1uQ82xn+sHIY87v5aWEDBBWgJ2SrWrh+iFZH5aQxLBoh8vaZkp5TnQRCDtv4Tjv4QW+o6kG+dr9nBbM0HK8D3RSEZkwaIRKcj6ZMmIgAmSEXw3XT4CJkj5PrKFGREwQTKC76bLR8AEKd9HtjAjAiZIRvDddPkImCDl+8gWZkTABMkIvpsuHwETpHwf2cKMCJggGcF30+UjYIKU7yNbmBEBEyQj+G66fARMkPJ9ZAszImCCzAf8ZSWtNOVaeZF/xyKS2nDdOvb36N/Gf3OlepsPagW0YoK044QNJZGrnLPqXKu104xukvSjcJGj/ZcttTPYak2Q+q5fRRKEGCcFT4wcQmxfCANZLg1X2wl8cvRzbm2aIPFQLxkiFHJCcESM+Frmo/FvSRzJhSwk6Tx3Ps32pxUTpLovyeZE6E6uUsL7VLf+wZI8WQhBSuhUJ86pgJ4JMhskTvpBCDJEkTKgL/KfQJQRWfhvywQETJDJw2LTsafFk3s+cniSjIjCE8YyhoAJ8tDhQDTCnSW9ZKCjhAgpp0j6/ED7v1i3TZAHIdk65M3YwgPjAQTODomCBh9SaOgEWT8Ed9vVxJiIAJHrCWM62A/6oRKEVW0yLXE93OSYiQAhiEg7B1EG9zE/RIK8IxCDwG2W6ggQzRGSkDhoMDIkgjBVyxODrR8lyF1jAeK4S4+CxWEb0RZHgeRGfz+mBKMlnRqIMogg2UMgCK9QvCLsnWmAsYp9QbgIGUoYUchAWNEYITzpiCyEMH1RuJrImx5jB2Xvl7TfELLl9p0gbAWBHC+OHQE1yl8Y9kP9RBLX7TXqqqLKk+b54Xph+K2i10QZkgZBlL81UVmJdfSZILsFcqzQMvBsP+e14/xAiD+23N5C1bN5EsJsJmlHSU9cSKHm/784JA7iZtA76StBPiDpoJa99f1ADMjR9lMitSvLBZJAlDa3ynAuZf8+JgvtI0FOC4MidVDN0vv9GCm6dsdkzWeHgM16bYATMv7m+tZrpUt9IwgHhp7ZAlJnSYJ4PC36kJKA7Lc8VdpYIOUbjL1svZA+EeSfkh7RsFdIVvPJgtM81+0ukxfvDE+WunWN6/PKxU7ozktfCEJG1yc16A0+uCHGVxuss+SqXhvWiDgm3JRcJekZTVWWq54+EOS8MGPTBIYsfrH/6ItNVNbBOkbbb1hnaUI+K+lNTVSUq46uE+RrDaVbvlLScZJw6NCFaeERUZZuAAxmFN/dQD1ZqugyQb7Q0EcmZ7WZeXFizIcOQY4Yc9NoYmsOU+5HZxnhNRvtKkG4w5EbvK58WtKb61bSY30CVHxJ0usa6CNHlzm52CnpIkHYg/Q9SXUf/wdLOqpT3spnLHf/A2o2z0QKB9N4ne2MdI0gxJuCHHVmW+4Jrw2Xd8ZLZRjKbuiv1zSF2cGtJP2rZj1zU+8aQereydg3VIdcc3NMoQ09VtI1IVRqqolHSDo0VXneel0iCIta3IFSBd2hBmNIxWyaHjeajRIrvTvcpFgnKV66RBBmm3g8p4jJkYLabB1m/VJjDn9G0p7Nm9R8jV0hCNOwJyR2n1i1fNhbmkWAw1t8eKdOlhC6tfhQqF0gCI74uaSUAG7XSlqn2XHh2sYQ4DWL160UOUMSmyaLli4QZK+w/SMWSHbd8kF+dayiy0chwD6u1EAOHOr6YVRrcy7cBYIwrbt5Ai67SzoxQc8q8QiwpnRkvJo4srtHgt7cVEonCE+AlOgZ3NFePzcU3RAIcGaGhcAYIXAFB7l+E6M0z7KlE+SYcJQzBhOSyDAl3IlpxJiOFV6Wc/C8Li0VaWfR6yKlE4Q7S2wujvdKOjzSSS7eDALgflhkVWw9aeMUaKQZk4uXTJCUGRIiihAn6pZG0HElsQhsHJL0xOqxnsJ5/+KkZIJwhuD9kYj56REJWAvFyTECUWKEfV6c+S9OSiYIYXVYTIoRjnj62yMGsebL8ooV+4rLrmpmwoqTkglCeMsYuU7SWjEKLtsKAi+XRLCLGOHY9EtjFOZVtlSCEKg5Npwl58jbCGMzL1/0qR18FxNs+7KQMbg4DEolyKoJH20HSmJa2JIfge9KisnWRYKetfObvbgFpRJkXUm/igTMK+eRgLVYnKf5LhH131bzjElEU3FFSyXIJiEQdExviD3LlnhLfgRiF3hZUS8y01efCLKdpDPzjw1bEGaxYhYMTZDIYZPyikV0EqKUWPIjELui7lesSJ+lfKR7kTAS5BaLxxLEH+mRzkiZ5vWx2kiQWyrOa/sNkmLCl3qaN8EZsQuFNLFlwiJVgmlWmYEA0+2x8ca8UJgwpFLi7v5aEt8vljwIpLwaYykxBwgaXpyUOosFUMyjp0RZ97dIvmF2RWLKA7YIsVWoOCmZICSjvDkRMQIJEHa/U2EuE/taghqnAnnip6yGc8iKs+lFSskEATAiX7C+kSo8TXCcAzekIjhbj93TO0naRxJ53FOEGS/8VKSUThDIAUnqCjFlR1fduoauT+ZcUiJADK46wvFo0iwUm3qidIIA/rckbVvHC2O65DQn0SfvypeEgBAEP7NMR4BXXU538hrE74Y1gsUt2sqxkvYrGfwuEKSpp8g0P9wRPhD5SBxd10u6M1xs3ebvlGnnkn0/so09UASlHl0rBxJABC4yTrUh/5W0QekH3LpAEJxD2NHc+bfvmkCaEXkg0H0NjqKmyIh/WXTltWjab+q3Q93uEkfrkLqVtK3fFYKAQ5PJOtvG1fXPRuAUSTt3AaQuEQQ82dRGrF5LdxHo1JagrhGEYZESK6u7w6lflp8ceZAqe++7SBBAq5tpKjvwAzRgN0knda3fXSUIOL9V0vFdA3yA9t4enhrndLHvXSYIeDMFTKaiptZJuujDkm1mDYuThZ1NmNp1gowGBwSBKHW2pZQ80LpmG8TgdGfnj0D3hSDjRCHtAYSJicvUtQFYqr29IcYI4L4RZNQvVoMhyehastQR1QO72I1LHCyuS3vQn4d0oa8EGe/kmiFfCPuIuNjeYElHgAj6BKgmYQ5hlm5Nr6p8zSEQZFEvLB+ij5O9irD7nJ0e/T6sfJfN1ULIQAJVzozzdODvQaWWGCJBZo0wNuZBmJUkrRhW7cd/l5UEibjIpFT179w43yOJreVszJz0y1TspAu9QUtuxw0afHe+fARMkPJ9ZAszImCCZATfTZePgAlSvo9sYUYETJCM4Lvp8hEwQcr3kS3MiIAJkhF8N10+AiZI+T6yhRkRMEEygu+my0fABCnfR7YwIwImSEbw3XT5CJgg5fvIFmZEwATJCL6bLh8BE6R8H9nCjAiYIBnBd9PlI2CClO8jW5gRARMkI/huunwETJDyfWQLMyJggmQE302Xj4AJUr6PbGFGBEyQjOC76fIRMEHK95EtzIiACZIRfDddPgImSPk+soUZETBBMoLvpstHwAQp30e2MCMCJkhG8N10+QiYIOX7yBZmRMAEyQi+my4fAROkfB/ZwowI/A+WM2TnTsEPJAAAAABJRU5ErkJggg==;" vertex="1" parent="1">
          <mxGeometry x="170" y="500" width="60" height="60" as="geometry" />
        </mxCell>
        <mxCell id="atDhAGsUYtWK8VnYLnzi-3" value="运营工作台" style="rounded=1;whiteSpace=wrap;html=1;fillColor=none;" vertex="1" parent="1">
          <mxGeometry x="80" y="593" width="261" height="40" as="geometry" />
        </mxCell>
        <mxCell id="atDhAGsUYtWK8VnYLnzi-4" value="" style="edgeStyle=orthogonalEdgeStyle;rounded=0;orthogonalLoop=1;jettySize=auto;html=1;" edge="1" parent="1">
          <mxGeometry relative="1" as="geometry">
            <mxPoint x="115" y="555" as="sourcePoint" />
            <mxPoint x="115" y="615" as="targetPoint" />
          </mxGeometry>
        </mxCell>
        <mxCell id="atDhAGsUYtWK8VnYLnzi-5" value="创建邀约价任务" style="edgeLabel;html=1;align=center;verticalAlign=middle;resizable=0;points=[];" vertex="1" connectable="0" parent="atDhAGsUYtWK8VnYLnzi-4">
          <mxGeometry x="-0.4667" relative="1" as="geometry">
            <mxPoint as="offset" />
          </mxGeometry>
        </mxCell>
        <mxCell id="atDhAGsUYtWK8VnYLnzi-6" value="" style="endArrow=none;dashed=1;html=1;dashPattern=1 3;strokeWidth=2;rounded=0;" edge="1" parent="1">
          <mxGeometry width="50" height="50" relative="1" as="geometry">
            <mxPoint x="-390" y="640" as="sourcePoint" />
            <mxPoint x="880" y="645" as="targetPoint" />
          </mxGeometry>
        </mxCell>
        <mxCell id="atDhAGsUYtWK8VnYLnzi-7" value="ae-merchandise-operation-s" style="rounded=0;whiteSpace=wrap;html=1;fillColor=#e1d5e7;strokeColor=#9673a6;strokeWidth=2;opacity=50;" vertex="1" parent="1">
          <mxGeometry x="-100" y="664" width="722.5" height="50" as="geometry" />
        </mxCell>
        <mxCell id="atDhAGsUYtWK8VnYLnzi-8" value="" style="edgeStyle=orthogonalEdgeStyle;rounded=0;orthogonalLoop=1;jettySize=auto;html=1;entryX=0.444;entryY=-0.04;entryDx=0;entryDy=0;entryPerimeter=0;" edge="1" parent="1" target="atDhAGsUYtWK8VnYLnzi-7">
          <mxGeometry relative="1" as="geometry">
            <mxPoint x="221" y="630" as="sourcePoint" />
            <mxPoint x="125" y="625" as="targetPoint" />
          </mxGeometry>
        </mxCell>
        <mxCell id="atDhAGsUYtWK8VnYLnzi-11" value="" style="edgeStyle=orthogonalEdgeStyle;rounded=0;orthogonalLoop=1;jettySize=auto;html=1;" edge="1" parent="1">
          <mxGeometry relative="1" as="geometry">
            <mxPoint x="-80" y="720" as="sourcePoint" />
            <mxPoint x="-80" y="780" as="targetPoint" />
          </mxGeometry>
        </mxCell>
        <mxCell id="atDhAGsUYtWK8VnYLnzi-12" value="棱镜校验" style="edgeLabel;html=1;align=center;verticalAlign=middle;resizable=0;points=[];" vertex="1" connectable="0" parent="atDhAGsUYtWK8VnYLnzi-11">
          <mxGeometry x="-0.4667" relative="1" as="geometry">
            <mxPoint y="11" as="offset" />
          </mxGeometry>
        </mxCell>
        <mxCell id="atDhAGsUYtWK8VnYLnzi-14" value="棱镜" style="image;aspect=fixed;perimeter=ellipsePerimeter;html=1;align=center;shadow=0;dashed=0;spacingTop=3;image=img/lib/active_directory/domain_controller.svg;" vertex="1" parent="1">
          <mxGeometry x="-96" y="783" width="35" height="50" as="geometry" />
        </mxCell>
        <mxCell id="atDhAGsUYtWK8VnYLnzi-15" value="" style="shape=cylinder3;whiteSpace=wrap;html=1;boundedLbl=1;backgroundOutline=1;size=15;fillColor=none;" vertex="1" parent="1">
          <mxGeometry x="-113.5" y="910" width="70" height="40" as="geometry" />
        </mxCell>
        <mxCell id="atDhAGsUYtWK8VnYLnzi-16" value="" style="edgeStyle=orthogonalEdgeStyle;rounded=0;orthogonalLoop=1;jettySize=auto;html=1;" edge="1" parent="1">
          <mxGeometry relative="1" as="geometry">
            <mxPoint x="-81" y="862" as="sourcePoint" />
            <mxPoint x="-81" y="922" as="targetPoint" />
          </mxGeometry>
        </mxCell>
        <mxCell id="atDhAGsUYtWK8VnYLnzi-18" value="ae-merchandise-operation-s&lt;br style=&quot;border-color: var(--border-color);&quot;&gt;数据库" style="rounded=0;whiteSpace=wrap;html=1;fillColor=none;strokeColor=none;" vertex="1" parent="1">
          <mxGeometry x="-158.5" y="941" width="160" height="40" as="geometry" />
        </mxCell>
        <mxCell id="atDhAGsUYtWK8VnYLnzi-26" value="" style="endArrow=classic;html=1;rounded=0;" edge="1" parent="1">
          <mxGeometry width="50" height="50" relative="1" as="geometry">
            <mxPoint x="-43.5" y="833" as="sourcePoint" />
            <mxPoint x="16.5" y="833" as="targetPoint" />
          </mxGeometry>
        </mxCell>
        <mxCell id="atDhAGsUYtWK8VnYLnzi-27" value="审核通过" style="edgeLabel;html=1;align=center;verticalAlign=middle;resizable=0;points=[];" vertex="1" connectable="0" parent="atDhAGsUYtWK8VnYLnzi-26">
          <mxGeometry x="0.1" relative="1" as="geometry">
            <mxPoint x="-7" y="10" as="offset" />
          </mxGeometry>
        </mxCell>
        <mxCell id="atDhAGsUYtWK8VnYLnzi-28" value="" style="edgeStyle=orthogonalEdgeStyle;rounded=0;orthogonalLoop=1;jettySize=auto;html=1;" edge="1" parent="1">
          <mxGeometry relative="1" as="geometry">
            <mxPoint x="50" y="719" as="sourcePoint" />
            <mxPoint x="50" y="779" as="targetPoint" />
          </mxGeometry>
        </mxCell>
        <mxCell id="atDhAGsUYtWK8VnYLnzi-29" value="商品邀约下发" style="edgeLabel;html=1;align=center;verticalAlign=middle;resizable=0;points=[];" vertex="1" connectable="0" parent="atDhAGsUYtWK8VnYLnzi-28">
          <mxGeometry x="-0.4667" relative="1" as="geometry">
            <mxPoint y="11" as="offset" />
          </mxGeometry>
        </mxCell>
        <mxCell id="atDhAGsUYtWK8VnYLnzi-32" value="" style="edgeStyle=orthogonalEdgeStyle;rounded=0;orthogonalLoop=1;jettySize=auto;html=1;entryX=1;entryY=0;entryDx=0;entryDy=22.5;entryPerimeter=0;" edge="1" parent="1" target="atDhAGsUYtWK8VnYLnzi-15">
          <mxGeometry relative="1" as="geometry">
            <mxPoint x="49" y="861" as="sourcePoint" />
            <mxPoint x="49" y="921" as="targetPoint" />
            <Array as="points">
              <mxPoint x="49" y="933" />
            </Array>
          </mxGeometry>
        </mxCell>
        <mxCell id="atDhAGsUYtWK8VnYLnzi-33" value="" style="endArrow=classic;html=1;rounded=0;exitX=0;exitY=0.5;exitDx=0;exitDy=0;" edge="1" parent="1" source="atDhAGsUYtWK8VnYLnzi-39">
          <mxGeometry width="50" height="50" relative="1" as="geometry">
            <mxPoint x="86.5" y="832" as="sourcePoint" />
            <mxPoint x="70" y="810" as="targetPoint" />
          </mxGeometry>
        </mxCell>
        <mxCell id="atDhAGsUYtWK8VnYLnzi-45" value="下发/撤回" style="edgeLabel;html=1;align=center;verticalAlign=middle;resizable=0;points=[];" vertex="1" connectable="0" parent="atDhAGsUYtWK8VnYLnzi-33">
          <mxGeometry x="0.062" y="-1" relative="1" as="geometry">
            <mxPoint y="14" as="offset" />
          </mxGeometry>
        </mxCell>
        <mxCell id="atDhAGsUYtWK8VnYLnzi-35" value="IC" style="image;aspect=fixed;perimeter=ellipsePerimeter;html=1;align=center;shadow=0;dashed=0;spacingTop=3;image=img/lib/active_directory/list.svg;" vertex="1" parent="1">
          <mxGeometry x="39.94999999999999" y="791.5" width="23.1" height="33" as="geometry" />
        </mxCell>
        <mxCell id="atDhAGsUYtWK8VnYLnzi-37" value="" style="edgeStyle=orthogonalEdgeStyle;rounded=0;orthogonalLoop=1;jettySize=auto;html=1;" edge="1" parent="1">
          <mxGeometry relative="1" as="geometry">
            <mxPoint x="182" y="720" as="sourcePoint" />
            <mxPoint x="182" y="780" as="targetPoint" />
          </mxGeometry>
        </mxCell>
        <mxCell id="atDhAGsUYtWK8VnYLnzi-44" value="棱镜监听" style="edgeLabel;html=1;align=center;verticalAlign=middle;resizable=0;points=[];" vertex="1" connectable="0" parent="atDhAGsUYtWK8VnYLnzi-37">
          <mxGeometry x="-0.2333" relative="1" as="geometry">
            <mxPoint as="offset" />
          </mxGeometry>
        </mxCell>
        <mxCell id="atDhAGsUYtWK8VnYLnzi-39" value="棱镜diff" style="image;aspect=fixed;perimeter=ellipsePerimeter;html=1;align=center;shadow=0;dashed=0;spacingTop=3;image=img/lib/active_directory/domain_controller.svg;" vertex="1" parent="1">
          <mxGeometry x="166" y="783" width="35" height="50" as="geometry" />
        </mxCell>
        <mxCell id="atDhAGsUYtWK8VnYLnzi-46" value="" style="edgeStyle=orthogonalEdgeStyle;rounded=0;orthogonalLoop=1;jettySize=auto;html=1;" edge="1" parent="1">
          <mxGeometry relative="1" as="geometry">
            <mxPoint x="294" y="554" as="sourcePoint" />
            <mxPoint x="294" y="614" as="targetPoint" />
          </mxGeometry>
        </mxCell>
        <mxCell id="atDhAGsUYtWK8VnYLnzi-47" value="邀约价任务管理" style="edgeLabel;html=1;align=center;verticalAlign=middle;resizable=0;points=[];" vertex="1" connectable="0" parent="atDhAGsUYtWK8VnYLnzi-46">
          <mxGeometry x="-0.4667" relative="1" as="geometry">
            <mxPoint as="offset" />
          </mxGeometry>
        </mxCell>
        <mxCell id="atDhAGsUYtWK8VnYLnzi-51" value="" style="shape=cylinder3;whiteSpace=wrap;html=1;boundedLbl=1;backgroundOutline=1;size=15;fillColor=none;" vertex="1" parent="1">
          <mxGeometry x="250" y="910" width="70" height="40" as="geometry" />
        </mxCell>
        <mxCell id="atDhAGsUYtWK8VnYLnzi-54" value="" style="endArrow=classic;html=1;rounded=0;entryX=0.5;entryY=0;entryDx=0;entryDy=0;entryPerimeter=0;exitX=0.533;exitY=1.1;exitDx=0;exitDy=0;exitPerimeter=0;" edge="1" parent="1" source="atDhAGsUYtWK8VnYLnzi-7" target="atDhAGsUYtWK8VnYLnzi-51">
          <mxGeometry width="50" height="50" relative="1" as="geometry">
            <mxPoint x="390" y="800" as="sourcePoint" />
            <mxPoint x="440" y="750" as="targetPoint" />
          </mxGeometry>
        </mxCell>
        <mxCell id="atDhAGsUYtWK8VnYLnzi-55" value="任务删除/关闭" style="edgeLabel;html=1;align=center;verticalAlign=middle;resizable=0;points=[];" vertex="1" connectable="0" parent="atDhAGsUYtWK8VnYLnzi-54">
          <mxGeometry x="0.0681" y="2" relative="1" as="geometry">
            <mxPoint as="offset" />
          </mxGeometry>
        </mxCell>
        <mxCell id="atDhAGsUYtWK8VnYLnzi-56" value="metaQ" style="shape=image;verticalLabelPosition=bottom;labelBackgroundColor=default;verticalAlign=top;aspect=fixed;imageAspect=0;image=data:image/png,iVBORw0KGgoAAAANSUhEUgAAAMoAAADICAYAAACprX6jAAAAAXNSR0IArs4c6QAAIABJREFUeF7tfQmYHFXV9nuqO5kkHwoJkqWrB2VVAUE+FVwARQIISFhMImS6eohikCRdPWH9RZQogvixJF2dBEHJ0tUTNKAouygiKLggqCwqYYlkunoCQhCjZJnuOv9Tk4Usk3TdW0svU/U8eaL0Wd9bb6rqLucQoitCoEEQ6Fq0Yo8+Zcjo2BBlNFWrY2zQaLJ5DGLKcGaMIMYIkPOHhoN5BAEjGBiB/j80nMBb/X+XSRFVwLwehPVgWv/2/97036CsZ8KV5NJcJBYhII3AjO7yu+M2HwiyxzDTaEJstE32GGIaDfAYZowmwmgAbdJOAlRUoBwbESVAgAeb6S8XXhgdx7BDCMohAB8C4BAiOH+/o5mxUAhHRURp5hGsU+zTl726W2yDfQjsvg/AIQU5pKBDCP1PhZa72LaPjIjScsPqb0KX3PLPd6yNbzhSUegIG3wkER0K5vf466WxrSnKkMMjojT2GIUe3aylvQdXbT6awEcy40gA7w89iAZzGIspztMyugYzAucsWjFs96Ftn2TbPhHAaQDtO5jxGCj3qs3vjYgyCO+KzOKV+5GiHA+iT4LoJDDvPghhcJ2yzbF9I6K4hqu5Bc/vfnnkEI5NIBsTmGgCgHhzZxRe9EzcHhElPLzr4ilTsE4lwgQGJrTqrFTQwFIsPjYiStAo18m+bvZMI8S+xOAP1ymElnEba7P3jIjSMsO5MRGHIIAyDcCHmiA1BmgNwGvAWAPiNQzlv0RcAaMCQoUYFd64zaQCUMX5jft/owo5/42owpv+JqBiwwYxDQNhOGwMJ8JwGxjubHcBcIIMJsM2DH1nRBQZ5BpQpwEJshzMy0lRnmPGcgXV5bYSW1Ot2GuGKJU1G9pGrFkwefR/QoOSmfRi2ZbxN6qywSFadDUzAjPNlacriHcB/MnQ8yD6DzP+SLCX95NBiT9XqVaWz+9MLg89lloOPRClty0Rj4hSC+AG/T3T3XOEYitdDJwdUogVJjxONv6IGD3OTE/kU+P+GpJv7248EMXQVIqI4n0IQrWQKb6eJF47C6AuAEpQzgl4wQY9RsCTDDzZxsqT16XH/jcof4HblSfKWkNTnS390dUsCOgF6ywQrgawTxAxO+Rgwn2w7fsNLXkfiDgIP3WxKU+U1w1NfVdElLqMmpjTjPF8G438n6sBvkBM0500Ef/YtmlxXkvc3VLk2Dp9eaKUDE2NFhzd3Ur1k8oWez/Ctn0DCEf5HQURFoNoUa4j8YjfthvOnjxRlhuaGu31argB3SqgmYXSJAU0H4S9fI2T8RuFlK/N1cb9yle7jWxMlijMTxnp5GHRq1eDDq5uWucC+J7f4RHo6pEvPnfF7NnHVvy23cj2Zi9aMWx1fOha8Rj594aW/GhEFHHkAtfIFnsvZLav89cRPQ7g64aWuN9fu81hzSlcYceHviEaLYN/ldeS0Zl5UeCCltdN6woAs/31QzdU/v3GFQtmHBzeSri/CXi2ll36yhiuVlYJG2K+zUgnJ0dPFGHkglMIgCRPK6Cvz9USPwku6uawrC8p7w2FXxaOljDfSKkzI6IIIxeMQgAkWTAkRldcPyXxWjARN5dVvfvVA2D3yWytmW1o6jciojTAePtMkucZuCKvqbc2QGoNE8LMYs8HFFaeEg2IoUzPa+NujIgiipzP8r6ShLCQwVfkU8mSz2E2vbmZhfKHFWJnQkPoYlIm5VPjbo+IIgSbv8J+koSBS/Kaeq2/EbaOta6i9Qmb8RvRjJjtT+XT7Q9HRBFFzid5/0hCVWb73Hw6udin0FrSzMzCyhMViglPjStD6KC5ZyX+FhGlDreFXrQyYBg+uH6FbD4315m82wdbLW0ia/amGfYS0SSHxGgvZ0IkIoooch7lu4q9J9ls3+vRDAB6pmrbn2vIQ1Lek/Pdgl6wLgHhO6KGnbMojk5EFFHkPMhnlliHk4InPZjoV928WuzVzmDS183SDQDNEsmZgFdzmjomIooIah5lMz94ZT/qq7zg0QyI6LZcKjHZq53Bpq8Xy91gniKSNzOezadVpxp/9EQRAU5W1mmHMJSGPwdgD1kb/XpE1xipxFc82RikylnTepCBTwulT/SQkUr060SvXkLIiQv31/aNt/3aa30tIurIpRJLxSOINBwEdNN6FsBBgmgsMzT18xFRBFGTEddN64cAPL0qxSh26JzU2Kdl/Ec6GxHQC9brIIwSwoMx30irMyOiCKEmLqyblnOexDlXIn1tnnWRNhApYtpNfxwybMS4DRJQ9O/ziogigZxbFb1QugEkNsuyvW07XlXnnb132a3PSG5gBDZWrlnXI4rP5n1eEVFEkXMpr5uWc57EOVcifcWYPjInnfijtIFIcQsC8vu8eFI+lbw9IkoAN5Nu9k4GbOe7RPoi4LScpt4pbSBS3AaBbHfvJLbtZaKwbN7nFRFFFLka8pu2cjv7iRKyphk8Pa8lb5TVj/R2RED2Cb95n1dEFB/vqtmzH4qv3u9AhyTHyZpl4m/lU8mvyepHegMjoJul2wCaKIrP5n1eEVFEkduFvF60DDAy0iYZC420+kVp/UhxpwhIrqGwoalbStZGC44+3GAZs3Q+gRZ4MHX/qGTi1NnH0qAqIeQBLyFV3bQkSsPy84aWPHCzo4goQpDvKDzT7PmUwnQ/iNokTT0Fm041OhMrJfWl1fRFPQcgppzB1N+2zlmMGwXQKIDXAXBK+7zB4DeIsTC2ge+Zc277amlndVKcsfjlg2Ox+DPi7uleQ0ucEhFFHLkdNC4qrBq9garOd8nhkuZeq9o8YX5n8reS+lJqmUL5S4qCM5j5JNcGmPtAtMwmu3teqv0+13p1FpSf8YKRT6vZiCg+DKBesLpBENqRurVbgj0xp7X/yIdQXJnIFkqTWFFmgvkYVwo7EWLgVgLmGZr6mBc7YejKzngRkMlp6ryIKB5HKVMoXU5EV0qbYVxjpNVQdgLPWtYzqrpe+T6AM6TjHUCRma7PpxMX+WnTb1uyM16AfZKhtW85Ohx9o0iMzEyzfLoCvkNCtV+FgV/mU4nxYbRY2PSO7pyo3Fs23l3pNfohMskZL/CQ+P75s8a8GD1RJO+a2ct46Bvry48yINeWmvAfsmPjc+mxv5cMwbWablofB/CoawVZQcYaI62+U1Y9SD25GS9sMzXsxBc9UQRHSS+WvwXmrwqqvS1O0I2UmpfWd6k4a2nvwdWqLTHb49LBjmLPGZr6PmntABTlZ7y2nRqOiCI4OPrS8lGo8q8F1bYW7zY0NeVB35XqJpI8DGBPVwr+CW056OSfSXlLerHUCSaJMk7bTg1HRBEcA920fgbgBEG1zeLPw6bxQa+XOGcvho9I/I7B/ysZpyc1Znwvn1aneTLik7JuWs4EhvBuB+Ztp4YjoggMiG6WLwD4egGVbUQ3l+aU1XerlymWu4h5jlv5IOQYdExeS3h58voSlm5aTp2CLavrbo1uPzUcEcUlcrOWvaZW1697GqCRLlW2ESPg2pymXiKjK6Jz4dLyu/qq+B3A+4noBSBb91cw2cNaG7HYdmo4IorLO0Q3Lacy/FkuxbcXe2TdW73jbz7vw32S+q7V/CvT6trlTgVJoc/kOhLOq2pdrv7FVSLhMyhOsNtPDbckUTLF3oPA9mFEtC8xv8kKvUk2v2mz8mYsVn2zUo2/yVz5914rnn/TTR/DTKHnTCJFdvV8nU0YPy+lBj9FCyBjWr8h4BN1uTN3dHqdoakX1yuWbLGcY2Zdwv8OU8MtQRS9u/dk2NVTGDiIQB8C8A7X4BA9AZsfhMIPGKnkgwPp6WbpBYCkXmWI6YJcOhHK98LMW1cmlErMcp170IKEPxspVXYPnOfodNP6E4APihvacWq4qYnSv2uXYtPBPEkcjIE1CPglg++BrdzuzE5lTesaBi6VtP+AoaknSuoKq2XNUppBwkWohR0JKMTj2PuGs1Xhog4CLgYUnb7Qao8PgeRu7B2nhpuSKNli70cAezozzvEKaA39NUJPp+2NEY/f2VMqiLizZu81DFuW1EGE5Kxnn1SPLsSyO4b7v08GmBpuKqJs6urqbMBr6E14G+84zhlasiugu29As5mCdTMRvhSmz1q+GJhSjxZ5MgW5N+cy0NRw0xBFL5a/DHYIUvdpz1r3hvP7CntD9ah5Xwy3Hpf8Llk3KcnJEGFGLqV6Ofkp5ThbtB5jxseklAeYGm54omzaMuIUW5BdDZfDyoMWgb6c0xI3eTAhpaqb1i+8FLaQclpLiflyI528qpaYn79fcKvVXqnIfp8MPDXc0ETRTesiAq5iYKifQAZri+81tOSW46PB+trWum5aTh2wU8P0WctXmLN+m2PRu8sabC7Uim0nvw84NdyQRMma1nsZfBVAn5NMtm5qpNAncx2JR+oRgG6WFwPcWQ/fO/VJyjlGalyoM3G6Wb4NYOHSRBtzoG5DSwy4abWhttlnzJ4OgnINgGRDDbiLYOp92s/LB6yL9KREmDEhn1bvklKWUJpZWLWPQpW/AyT3FkL2mUaqfcADeQ1DFN0sfQ2gb0rg0wgqyzfw2qO/m97/1XoFkyn06ERKrl7+B/IbdrsK3ezJAspcGQwY/GYbx9Xr0mP/O5B+QxAlUygtIqKg10Vk8HOlQ4xzc2n1FlfCAQnJH1IKKCCgZGhqe2DWBzDsaUKDyDRSifTO4q07UXSzdA9AJ4cJqJ++GLgzr6mn+WlT1lbGLD1PoP1l9X3Wu8XQVE+9YUTi6TKt/7WBJ0R0tpZlhT6X70j8uCGJkjHLDxH4U7LJ7ahHvQR+iYER2Phn+Ka/N/9//1xttORUIDyqUcr2yB5U8hsUx17YT1nZskQbc6fHDS1xxK5wqNsTxTeSEMpg+qGN6p3ztPZf7SrZTXuA2m0b7bGYkmTmdiK0M/OZMjeLU9sqp6ny9YZlnO5CZ2Zh5YkKxbaU2PHZvIA5fn5ITPn49VMSrwkoSYtOu4mHDBtRdlr3vVfGCBPNyqcSu/y2qQtRfCGJQ5Cq/T1FGXbTXG2vXhmAHB0PWz/W2DE6Yt6UxN9lfQehp5ulmwCq81FcOs/QEjcHkd9ANj2tnRC9ssFWDv1ueuwuJ2JCJ4ovJAHNUTDkWi8EcQDftH9sldSAhljATiS+GUtKB8YUcs6/vEtEzy9ZIvwsl1I/45c9N3a8fefSHENLXFDLT6hE0U2rCKCjVlA7/Z35D0yxb+a1cfdI29hKUTfL1wNcE6QdfBHKDD4yn0qW/IjDbxs+VNeXDek/SoxPmDslvFrKHmuXrWcbH8t3qs7ZlV1eoRFFL5S+AqKrawW0C5J8e1RV/ebsqeRUWvd8zVhS2jOmkNw7dB32MIkmrBfKN4L4y6J6XuQZ3JnXkrLbR6Rc6wXLAMn1pWHgO3lN/X9uHIdClEyhfCYRSx6npYdB9pV+n+3wMEuyXKlsOHLu1H3+5QbgesropuVUnQ/rNehiQ1OvCzPfWUt61CopfwJhLwm/KygW/1huyphX3OgGThS9u/dY2PYv3QSzowzfbGjJ8+R0d6516bLVu7+1/q1VBBomapuYsrl0whDVq5e89OulUMDK5w1tnFQhByE32wlnzNJVBLpMxgaznc2n212PY6BEySyxDicFT8okAtv+htHZ7rSh9v1ydiYDuFbUMANPrmpLHHHbZKqK6tZTXjctZ+Hve/7HwC8pROm5IRXP2Dr+6WbP/nEofwAgXEKKgUfzmnqUCB6BEaXr1t732BXbWdd4t0hAjmyQfUOmz392t/g79nhJ5nHNhC/mU+pC0XwaQT5TsE6lje/yx/sUzyJw9QYjvXeY9Y23hO7lScn0dv94t1gEQpSuRSv24HjbHSy66k4or/vvuoNuPm+/N90mIConX0mRHja0hI+7CEQj90e+f82B4TQT2uVK9C683WEzz5uXTkq+TnvPY+aing8o8f6nifCrMwhLjZQqPPMaCFEypnUHAaeLQEKER3MpscehiH1H9pxFK4a9M972LMD7iuoC/HlDS4b+Hi4epwsNZsoWy+OZMJ4Z4wmoUaeYH4TNv7CJfzEvvfcfXXgIVCRrlhcw+HxxJ/Rvhn1MXkv+RVTXd6LoxfK3wexqym2rYJ8yNPUw0eBF5bOmNZMB4ZYLBLonpyU+K+qvWeRnLesZbq/FARSP7V+1+QACvcEKvxRH/KU5HWNeaqQ8uszeT9mwH5KKifhyIyV3NNlXoswslCYpwmUsaUWsrXrwnMnta6WSd6k0e/ZD8dX7HvAEiA51qfK22C4O9AjbihQ8IaCbpV8B9EkJI78b9eLyo91UBx3Itm9EmdX98r5VO/ZzgFy/1hDwmgL7Y3O09hckEhdS2VjJhW8UUtpY5+m3+bTqdK6Krjoj4GHtCwrojLla4ieyKfhGFL1QWgYikaqN65ntE/PpdqfhTeBXxrSeqP0uvmMY9Sq5EzggTebAyysXs70wn24X7pOyNUS+ECVjWpcS4Jx1d30xKJXXEt2uFTwIZkzrbAKWCpsg/IMx7LB8as9/C+tGCj4iwJQ1e51ytxKzjvxMpTL0+AVTR8ttft2UhWeiZJZY40nBz4VQCXAxcaA4ZEv5ENG3cqmEU1csuuqIgJdXLrB9ipFud7oie7o8EeX87pdHDrHjDkmcKvJur1D6GG4OpmtJ6WO2Qo+5DW4rufUEHJbTVKdrU3TVCYFModRFRFIdAZj5a/l08lt+hO6JKBKHhH4fa7NPnjO5fbUfwbux4WF3aahnvt3kMthk5JuV9iN1h6GpUidXB8JZmijZQnkKE7v/xmCsJtgn59LtgfdX35yo0/hz2IhxZZlDTAqUY+dq43Z5tHiw3bhh5rvplf4BqRbvRP9AX/UEY2r7837FLEWUTPH1dxKvc5pZul+TsPkcozMZctXA0gUACTcoZfB9eS3ZtJVh/Lo56mXn4mWvjl23fsNfSbJnpm3jrHmd6g/9jF+KKHqhdDWIvuI2EAbflNeSoR4icmLLmtbjDHzYbZyb5Yjtjly6XXyWTNRRJD8gArpZflFum5GzoVb5Tk4bJ7ozpOZICBNl09FL52mi1LS+UeCpITE6LqyKHJtj8jDv/mdDq19LNZeYtqyY7HrXJkB+bmhqIJ0PZIgiVDU97Pqzm+8g2WLNxHxRLp0Ufl1r2Ts3xMR0s3S7h+Lsr7ON492cf5dJSYgoulmeBrD73h91qlQy7abyiGEjeMAasrsCiUCvIhY71O3xUBnAI52BEfC0VhJCwT3XROk/n6wozivXPu4Gmx/ubVOPq8dpwEyhdDkRXekuzq2kGPONtDpTWC9S8IRApmjdTOyprd4CQ1NneAqihrJrouhFywC7q3ZBwAa26TijM/GbIIPfmW3dtJwyQqqo73r2NxGNtVXks2b5bgZ7ab70IL/x1il5/YD1QWLiiijZxSuP4VjM9eZFAi7JaarwmXQ/Es2a1vEMOPPvoteDhqaOF1WK5OUQcM7AVNcrzo4JiV7wG30y+AXbxinzO5PL5aJwr+WOKMXyjwTq895laOoE9yH4KylboofBX85rSfffX/6GPaisZRav3A+x2GMEjJZOnLkvFqOT53SoTu/KwK+aRBHt2U1Mn8mlEz8LPPJNDvTungO4ig+QEns/bD4IhCkSvst9SuWQGzve/YaEbqQigEDGLB9NYM/t+0jBubmO8HrS1CSKblpOHVtXB5cIuDWnqTI3ak2oM/dym/Ja6YNMscMYtvO4fj+R8n4wj6mpXEOAiObmUolZXu1E+rtGIFu0Ps+MH3jHia40tMTXvdtxb2GXRNGLVgYM10XCDE2tSbzNoTnvqH1VHjmEh4ysVHmUAh5ps/M3RjIpI8E8CgpGgjEKjPeA8D73aQlLfqJRepwIR94kCropt51o+/QIVMhpidCbuu70xs4s692L1ld/J3K0t0nGbJswmfCzfMjV15sRJy8xZwrl64j4Qi82Nuryw4aWlDi85d3zTomSLVrfYEaojzfv6YhbaOaiduLZhqvhrL3ZinItA2d79kz4h5FSXa7hefa2g4EBiZJd+tIYVNue4Tr12PA/zZ1ZpJcrbfFDFkwe/Z/wfA4OT5lCz5lEitO9QKoL1nYosaGpbvcWBgLwgETRTctZA3Hq87b6dZ2hqRe3epJh5jd7Nitv7Fe+moFLffL7nKGpQX6fugpzB6Jc8tN/vmPdvzc4B/GdBqEtfbGiHJnvGOeU5owuHxDIFFd9lGBfDeZjfTAHAu7MNUjH5R2IohfLTqKuz5r4AUg9bDDw67ymHlMP363oUzd7smDlapBv/8A21NN+G6LMfojjq0vlvlYcyO1zYuCSfJ222bQSvjO6y++OMV8NllroHRAKYpqWSycCaFMhj/w2RJn1/Z5RfUN531hsyD62be9LTtVH4n3BTlFr9xUg5cMJT9Ou0PvnTW2sjr7hZe+PJ90sTQbDOe26nz8WAdg43ehUf+qbPZ8MuV4gdPqdVPr63qtw7EBWcCABBwK8f1MSiHC3kVJP9QnDQWdm9rJnh76+buTV/qyNvA0fg47JawnnKEfDXa6JsrPIZy/joa9tKDkEUomroxjKSKcoABNGMvMoclbXnSIBbI/q/3tjhySRiQIG4BTw7v/D4HUEWgumtSDnv7FEweZw+6A33Kh7CCjTbY0nu3997WgPZrZXXQGuTqhXUyI3eXgmihsn28s4fUr2iNPIKrWNjMEe2Vdlm22sJQVv8VBaW3FI8A68dfNnx60FkUOUHS7nNbHapjjbq/cUjGGNgqHv9dqjXtBn04vPWvKaWqX1l8p24N0FAA/Y8aFT5529l1NWqmGvuhDFDzSyhZ4pTIr7umKbnTKWGmnxjkt+xNysNvr71pNyCZjf43MOP4i12V8IuuWHHzE3LVEyZnkJgdPCIDDONtKqDztYhT03ncKmSjbOwqH/LbgJC4xUsMd3/QS8KYkyaRnHxq4vlyUO/pSGcux916XHChee8BP0RreVXfrKGK72XQpQMEcPmK8y0snLGx2HreNrSqLMXGJ9XlHEzzUQ6MaclpjeTAMUdqzZYvlLbNuX+jrluyUJfoaZr8in238cdl5e/TUlUXTTclpYTxVNXiHl5LmpcfeJ6g0GeX1p+ShU+gkSSK9KAt+otPHlYRZo93PcmpQopTJA4wSBWGloqnDPe0EfTSc+fdGKsbH40AsICGhzKD8Phb5udDT3d2HTESVbXPVZ5updEndk1MZhK9AuKqz6nw1KdQYYTj2svSXwdKNyS6zNvqRZnyJN/Y2im+XvAXyum1HaRiaa7doCR7ZoTeeNBDlIGEd3Ci8z6KthtR50F5I3qaZ7ouim1QMgKZQ20ZtGKrGHkE4LCmfMUpocghAdEVx6XIy1cbYVniJN+0TJFEsfJabfig8y/cjQEhPF9VpDQy+WzwCz8wQ5LsCMVjHsi/Jau/gicIBB+WW6qZ4oWbO8gMHniyZPhLNyKX8by4jGUA/5/qqZBOc75LRg/VMxtr6anXNueC0Hg81nR+tNRRTdtP4BQHjmSqSMUtgDEIS/TQ1enSdIRxD2t7L5OsPOtupTpClfvaabPfvHoQj35BtM5Yj07tKxqFIKhC8ETJB+8wzcmW+Qo7pB59s0TxTp8kkNehDIz4HNFstTwEgx+CQ/7bqxNVie1k1DFNm+fkzKwfnUuL+6GfRmknH2Y8G2U8x2yktFeK85k82n5jqTd3u10+j6TUGUS5et3n3t+rX/kgTzaQIm5TT1OUn9hlLr6i59kFlJMSMFeK+77Dk55ruMdLJu3Qs8x+/SQFMQRbQG8gC5/xkVe7Kffcdd4uubWFex9yQbnAJzIEXQvQQ6GF6/moQo5WVgnuRlMBl4Mq5UJs3pePdLXuyEqetsM+lD9SybOEWgMGvuvgLAdZcABXTGXC3xkzCxCdtXUxDFAUUveicLwI9XFWXS/I7Ey2EDLeLPWViFrUwkYmeRVHg6XMTXdrL/YvACjrfNp74NDxE5BURcXXVtHuUqQo9CTUMU/8iC3zHxpHwq6fR5bJira9GKPez40IlMmEiME0MNjLCWbVoQj/Ut2PzE1c3yDQC7PriVSyUU2kl9g1BzCchZUxHFL7IQ4VHioZMaocCEvqR8FBR7IoEmskSDVo/3BRMwn4bQgrlnJf62ta1MsXwCMbvunEZEHblUYqnHeBpWvemI4hdZnJKqbRybeF167Kthj86FS8vv6rMxkdmeRKBPh+1/k7/vcxwL8merfxrI/+xFK4atjg91SkS5u5jvNtLJlq2V1pRE8Y8s/CvbxsT5ncnX3d0N3qQ2dizm0xk0UeK8vzfnm7WJTKVq3zi3M1lzc6luWg6JXHftHcqx3Vq1HkHTEsUvsgB4UNltxMS5Z4yUXafZ5Q2cudU6nCr9mxKdtYbD/bnbJawQ3YaqfaPRmXzIrbZulq8H+AK38gC+ZGjq9wXkm0a0qYniI1keYHprUj51wL/9GDl9SXlvUniCzXwaEdW7d/1dtm3fOK+zXbhWgN5tnQYbrqd9mfmX+XQyyK38fgyPlI2mJ4qPZLl/6MZvFqlSRtNuKo8YthtPgL3l6SFSNlZq8GoodbONxflO+T7sXWbPp2worp9ATjyjXkzEZs8mO4iE6mmzJYjiF1kIfM+blb6Ji6fus87toGQK1qkK4QSbcRoR2t3qBSTn1GNeZNu0aF468UevPmSIsq5t3R43T97vTa++G02/ZYjiF1mcrePr30pMvPk82mmfmEzR+gLZOA7Uf2LQ9Qp2UIPPjFWk0KKhtjLXz1k8GaIwcXujrVH5gXtLEcUvsgC4Y9SLiYlbv0LoZnkaiD8HG+NBqGvjza0G/jkm+m4+lZjrx82wvQ0Zoijcd9Dc9Hu2WZMJIrawbbYcUfwjC90O4OcATwPwobAHZpf+mP7AwHfy6USgFRdliEKkHJFLjXu8ofDyIZiWJIp/ZPEBYV9N8I9sVq7x4/vDTVgyRIkxfWSOD99HbuILU6ZlidJyZCG63UglPO2gFr2xZIjC9NaqaAIEAAALTElEQVTufk2zi8YbpHxLE6W1yEI3GFriwiBvhu1tZwulC5noOvc+aYWhJfZ1L988ki1PlFYhCzPPyqeTgXy07+x21U3LWaR03RvFmV7PaclAinzXm1INR5RsoXdSLj3uNr+B8ec8i99RCdgjOtNIJe4Q0PAk+uXCqtFDqWoBiLs3RDlDS3S5l28eyYYjim5a14LxRBBdsRqMLL8HcKTbW0Wp8OFzpyb/7Fbeq1y2YH2RCUL7toiVyUH8I+c1Fz/0G4oos5b1jKpuUG4F4wSGnQqisFp9yUKPE/N9gH0vYrE2tvlht4PINGz3fGpPX/aiufGZMUsPCR4/fm7Ui4mDWnH7ioNXwxAlY5Y7iNkAYdSWgVQobXQkTDcDKyITJlmcs/ogvjdWxb1bb23PFlYdyVT9nbu4aZWhJUT7wbgzPYCUXug5GaTcI2KAwVfnteRXRXSaSbbuRJmxpHRgTCGnb/mA5T+ZeWo+nVzsN6gBk+XPDL4XhLvyqeSAZHDKDtk2DXhoaodcif5gpBKuX9O8YpUxraUEnC1ipwp8aL6mPimi00yydSVKptCjE5QrtnmKDIAeMc7NpdVb/AbWV7IwPwXQvUqVf+jmW6KrUH6/TeyqMB8RfphLqWf5nf9A9jJLrMNJgdAN38qzXZsxqhtRsmZ5KYNd/6tFRNNyqcT3/L5ZvJGFnwHRvcRYKFpg7/yFL+87ZEj8RVf5MK4x0upXXMl6FNLN0vUAiRzWAoNSrdQ0aCAIQydKdukrh9rVvh8RaH/hMWU+30gnvyusV0NBkCx/JcbtzHSL0ZlYKRvLzFtWJpShMWf6tfZFdJmRSny7tqA3CefAGSv8uOAx5b+OejHxgVb9iK/LE0UvlDQQFbwMJxFm5FLqAi82BtLdJVkYf4dCSzbYby38bnp/X4pR9M/wrVdcndVn5ovy6eT1fue8vT29YM2D009F4CKmr+XSiW8JqDSlaGhPlIxZPo/A/jwNbOhGp5r3G/HtyPI0My8c3td2y/99ca81fvuadld5xLB/savTlARkcpo6z+8Ytra3sfAFHhDxwcA6DIkfkj9rjLtXSBHjDSYbClGcyutcrazyN3fqMrREzl+bQMYsnbdnUr1l9rFU8dv21vZmMyuri+UNAGK1/AT1fba1X71g/RwE0fP9CwxNFXoC1cq1UX8PhSiZgvUMEQ72GwRS6IJcR2KO33bDsqeblvNEqX22nvgcI5VcElRcWdOayYDoE/qNqs0fnd+ZXB5UXI1kN3Ci6KZ1EYBrA0z6YkNTBXa4BhiJoGndtFYDGFlTLcDW3/0f8MS/kTjvP9vQ1G/UjL1FBAIlSmbxyhMoFnNdllMaU8KlRkr9P2n9OinqZrkX4LG13DPbn8un2wM5zZg1rTwDM2vFsM3vhL8rfRs+NnfqPoHUQhOKJSThwIiy8buk+luA9wklF+bLjHQy8ClUP3PRTcupqr93LZsM/mxeSwptKall0/m9v0gGQ3ghl8HT81ryRjc+WkUmMKLoxXIBzFqoQBFdbqQSV4Xq04Mz3SwtB+iAWiZiCo6f0yFfn2sg+7ppfRyAc97knbX8b/s0oTuMVOJMIZ0WEA6EKNli+UvMfHM98GHGFfm0+s16+Bb1qZulpwE6pJYeE52YTyWEpm53ZXPGktKesZhyL5iPqOV7u9/fYPCxeS35F0G9phcPhCi6aTkbAUPbxLf1KDCjBwpP3tlmxEYasaxpPc7Ah2vF5PfGUL1QKoBI4mlvdxlau+9T8rXyb4TffSdK1uxNM+zApjJrgRbG4lytGNz+rpvWrwEcVUueQF/NaYmra8m5+T1rli5jkPDrKQM/yWvqGW58tKKM70TRTesRAEfXAywGF/JasrMevmV8ZkzrDgJOr6lLmG+kVLGZqQGMZoqlicQkccyae2MUP3FOauzTNWNtUQFfiaIXrLNAuLU+WNFfY23Vo+dMbnfWJpricttWwY9/zfXiquPAVacy/W6i4DAwJa+pdRpX0WiDkfeXKEXr52DhbRC+ZNaMW71dr4gz/8FIJ6W/+TLLevfCOvsJiUVFgOkqI5243JdBamIjvhFFL5bPAHMgi2K18eUFhpZsuj1HGbN0CoHurp0fSoamSlfK103LmaU61IWfbUUYPzXSau1XQ2HDzafgG1GyZvluBp8SOgQhH5P1M79M8eWDiOPPurBpG5pac/PkQHZ003IKWBzjwsf2Is9xtXpK/py9W35nsBtsfCFKttj7EWb7D24c+izDsTb7Xc30XbJ1/iINRSuVDeMWTN1HaAe2aAvst2Oj/0KxTzU63Lex83lcG86cL0TJFEqXE9GVYWfXjN8l22Okm+UywDUrrCjAh+YKFG/ImuXLGCw8DdwfX0DVb8K+P/z05wtR3K4H+Bk4gG5DU1M+2wzdnG5ajwJwtpPs8hLp466bpQsAkjsRyXSZkQ7+2HGtfBvtd89EySxeuR/FYi+EmhhjtZFW9wzVZ0DOssWyycw1CU8EI5dSs7XCyJil8wkke1R60BzEqoXj9r97J0qx3EXMYR6eesrQ1MNEE21Ued0sfxPgr7mI7/eGpn50V3K6aU0FsNCFrR1EnJZ8eU112nxH1wAIeCaKbpZ+AVA4LZN9WqFupDtB5OY2NHWn46V3W2fBllvsJeDJnKY2VlexRhokryVVp89/drf4O/fwvfDCgBgxf9tIJy9rMPw8hzPT7PmU4rJFtaIMOXxux+gdCnV3meXTbbBUpXsCXs1pat0btnoGMmADnp4oGdM6m4ClAcf4e4BvMLTksoD91MW8cxQXCjsHuGpeA5Vq0s2ezwCKc65E5lpnaOpwGcXBpuOJKHrRmgcWqwPlHmBaxeAbVrU9esNtkydX3es1n6RuWk7Fl5oLikRUzKUSW7bHdxVWfdqm6oNyGfNLhpbcT0538Gl5IkrWtB5k4NM+w/ZfEBbHqHLDnI53v+Sz7YY0lzGt5wmoXTmT8LyRUg90ksiaPZ9jKE7nYpnr14amyqzWy/hqCR1PRHG7WOYOKX6cQbfFKsptc6eO+4c7ndaQ0k3LOb14vJtsnA96vWBdAsJ33MgPIPMDQ1Nd13yW9NFyah6JYrEnRBirScGdTMptRse4ez3ZamLlrFn+LoPPc5UCYyEIX3Alu4NQ67aOk8PDvZY0UaQXGhmrQbiPQffF26r3Nes+LfcQ15bMFEpdRBT0WtR1hqZeXDuaSGIgBKSJkjWtCQz81BWsjL8z8BiIfhmRY0fEhJoKuQJ8W6FW74YlAYmwijRR9EL5KyDeyTludj7CH3PIEY/FHpkzZZybreTCwbeSgm5abwDYI4CcBlVFxwDw6zcpTxTTKm5sJ8d9AJ4DlCeY+JE424/M0drD3fsVFDoh2s2a5TsY7OchqbeYeUYQbf1ChKVhXHkhykWs4M9Yr/wl/4Vx/2yYjJo0EJ+/U/4Gm2cYndF5Er9uB2mi+BVAZGcjAnph5SGgmB9VTu7v66vMuPELg2MNKqz7JyJKWEi78OP1O4XBN61qe2xGq+9kcAGl7yIRUXyHVN6gXrB+AoLcVvcmLFIuj1T4mhFRwsd8px7724mTIliylFYRVy/MpduD3pzaQEiFH0pElPAx3zlRfvDKftRXEZkxfIBs++JcZ/tTDZRGS4YSEaXBhjVjlv5FoN1rhUWEa3Mp9ZJactHv/iAQEcUfHH2zUvs7hVYR4eJcKuGsY0VXSAhERAkJaLdudLNnGqDctBP5ByhmX5ybEr1qucXTL7mIKH4h6ZOdWUteU6vK+tIA5qJNjT5hLGMmIooMagHrbPudEr1qBQy3K/MRUVzBFK5QplD6ARF9HsADTPzFfCo50BMm3KAGubeIKA14A2TMUppISRipxDUNGN6gDOn/A4Be4EnpQbvIAAAAAElFTkSuQmCC;" vertex="1" parent="1">
          <mxGeometry x="390" y="720" width="40.4" height="40" as="geometry" />
        </mxCell>
        <mxCell id="atDhAGsUYtWK8VnYLnzi-57" value="" style="endArrow=classic;html=1;rounded=0;exitX=0.5;exitY=1;exitDx=0;exitDy=0;" edge="1" parent="1" source="atDhAGsUYtWK8VnYLnzi-56">
          <mxGeometry width="50" height="50" relative="1" as="geometry">
            <mxPoint x="410" y="770" as="sourcePoint" />
            <mxPoint x="330" y="820" as="targetPoint" />
            <Array as="points">
              <mxPoint x="410" y="820" />
            </Array>
          </mxGeometry>
        </mxCell>
        <mxCell id="atDhAGsUYtWK8VnYLnzi-58" value="任务过期" style="edgeLabel;html=1;align=center;verticalAlign=middle;resizable=0;points=[];" vertex="1" connectable="0" parent="atDhAGsUYtWK8VnYLnzi-57">
          <mxGeometry x="0.0571" y="4" relative="1" as="geometry">
            <mxPoint x="-23" y="-17" as="offset" />
          </mxGeometry>
        </mxCell>
        <mxCell id="atDhAGsUYtWK8VnYLnzi-59" value="对账" style="shape=image;verticalLabelPosition=bottom;labelBackgroundColor=default;verticalAlign=top;aspect=fixed;imageAspect=0;image=data:image/png,iVBORw0KGgoAAAANSUhEUgAAAMgAAADICAYAAACtWK6eAAAAAXNSR0IArs4c6QAAGYhJREFUeF7tXWmUHVW1/nZ1gBAQRJ84I+rDgfBiJOk6pzpEm8EBFZ8KQdSMMoRJQRAfEhVQBpXJIIRBwCSgLGUhgkMYtRVy65zqNJOPID5BFAdQEEEIge5b+63T6WSFpLtvDefWrbr31FpZ+XH3/va3v1Nf171V55wiZDiEELsS0T5MNBnMbwLRm4b/d4dToBwKPAeih5j5ISJ6CHGsurq6flGr1f6elh4lTZBSvp2JFgLYB8yTk+a5OKdAiRS4lYE7EMcXRFH0RBJeDQ3S29s7ce3atcczcDyAHZKAuhinQJkVYOBBYv72TjvtdME111xTH4/ruAYRQkwD0aUAdi9zw46bUyCjAgNMtCgKw5vGyh/TIN1BsLfHfGvGwi7NKVAdBZgXaq3NhWCzY1SDiCD4CphPrU6HjqlTIKcCRCfrMPzqpiibGcQPgoXEfHHOci7dKVA5BWKiffrD8LaNib/IIEEQvD9mXlG5zhxhp4AtBZina60H1sNtMIi5W7Vm7doaAe+0VcvhOAUqqMCdL9thh54VK1Y8b7hvMIiUchEDp1WwIUfZKWBVAQYWRUqdscEgww8BgZXuOYdVnR1YdRX4p0c0IwzD3w5fQaSU5zLwuer245g7BSwrQLRYh+GxwwbxpbzT/fawLLCDq7YCRPfpMNyNhBC7gOh3eboh4E8MPJQHw+U6BawpQLQVmF8P4HW5MJknkx8ER5t5KVmACLiGiL4WhuFvsuS7HKdAMxXwg+BDHnAhM++UpQ4Bx5AIgkvAfFgGgEgrJTLkuRSnQKEKCCkfAPCW1EWJLiUh5S3DU9hTHh7RPuEmTx1TQrhwp0AhCnQHQY/HbO7Spj1uNb9BHhxe8JTueFgr9cZ0KS7aKdA6BYSUfwJgfpckP8yCKyElJ8/YENmnldozQ55LcQq0RAFfyj4C3p22uDNIWsVcfCUVcAap5LA50kUp4AxSlNKuTiUVcAap5LA50kUp4AxSlNKuTiUVcAap5LA50kUp4AxSlNKuTiUVcAap5LA50kUp4AxSlNKuTiUVqJRBZs6c+YrBwcHJzLwrE+1YScWrTZo94K6hrq4HVq1caSbytf1RGYP4QXAwMV/W9iNSnQaVR3RiGIa/qg7l9EwrYRARBNeB+SPp23MZTVdgjI3Tml63oAKlN4gIgjPBfGJBergyGRTwiN5uNirIkFr6lFIbREq5OwMhgC1Lr2QHE2TgxkipfdtRgrIb5FAGRt0cuB0Ho8o9eURT2nEJdakNIqS8EMCRVT5xOoY78xyt9VXt1m+pDeJLeQMB+7Wb6G3ZD/MJWuuz2623shvkZAJOaTfR27EfAj6glGq7DcxLbRAhxEEgurodT6h266nL83au1Wp/bLe+Sm2QqVOnvnSriRPvBOA2eijxmcfAZZFSh5aYYmZqpTaI6cr3/Y+Q512XuUOX2FQFGPgH1+tT+vv7H21qoRaBl94gwyYJglnE/MMWaeTKjqEAAeatSucrpW5oV5EqYRAjvhDilfC8LxLz3gzs1q4DUoG+/k3AjTHRTVEYXl4BvrkoVsYgG3fp+/4biWjnXJ275NQKEBErpfpSJ1Y4oZIGqbDejnrFFHAGqdiAObrFKuAMUqzerlrFFHAGqdiAObrFKuAMUqzerlrFFHAGqdiAObrFKuAMUqzerlrFFHAGqdiAObrFKuAMUqzerlrFFKiUQaSU5ul5L69740/HPEknMyGQ+Yaurq7b23FKeZk9UxmDCCE+D6KzyixmIdyIFnO9vjiKoj8UUq/Di1TCIELKGAB1+Fht3P5jYP6g1nrAadJcBUpvECHE90H0iebKUEn0X2ql9qok8wqRLrVBhBDvAdHNFdKzUKoMnBIpdWqhRTusWKkN4gfB0cT87Q4bkzTt/kgrtX+aBBebToFSG0QEwSVgPixdSx0V/Xut1C4d1XHBzZbbIFJeD+DDBWtSpXJPa6W2rxLhqnEttUF8KU8i4PSqiVogX/dDvclil9sgQfARYnY7mox1EhCdrcPwhCafIx0NX2qDmJERQfBrMM/s6FEavfknhgYH3zYwMPC406Z5CpTeIN3d3a/yurr+1jwJqonMcfyuKIpuryb76rAuvUGMlCO7mKwA0VurI23TmD7LwFGRUsuaVsEBb1CgEgYxbKdMmbLN1ttsYzayngLmdwB4ZQeN49NgNi8SupeIliilHu6g3lvaamUM0lKVXPGOVcAZpGOH3jWeRAFnkCQquZiOVcAZpGOH3jWeRAFnkCQquZiOVcAZpGOH3jWeRAFnkCQquZiOVcAZpGOH3jWeRAFnkCQquZiOVcAZpM2HXggxG8AHQDQNwKva4Ym8lNLMqJjGwO5m+BgY8ID7Pc9bYntbJGeQNjaIL+X5BHxmjBYfNu+gVxWa0yWl7I2BU2jdvmijHc8ScJTNnpxB2tQgQsrHAOzYqD0CTlVKmb/IpT66pTzQA36QhKTNmc7OIEkUr1iMkHIxgM8mps38Na31VxLHFxyYxhwj1KytlXEGKXiwm12up6dnx3ocm6tHqoOB0yOlvpQqqYDgDOZYx8rSaktnkAIGucgSQog9QfSLLDUJOEMptShLbjNyMptjHRkr6/WdQZoxsi3ElFIex8A5mSkQfV2H4Rcz51tKzGkOw8LKji/OIJYGtCwwfhB8kpi/l4cPAd9USv1PHow8uRbMYcpb2TPMGSTPSJYwV0q5u3kukJuape/waXlYMocpa2XXSWeQtCNY8vjhpcmTJt0H4A15qTJwbqTU8XlxkuZbNId5eGhl32JnkKSjV6E4IcQCEF1hhTLzt7TWn7OCNQ6ITXMA6NNK7WmDszOIDRVLiCGlXMrAPEvUztdKHWMJazMYy+aAR9QbhuGvbPB1BrGhYkkxpJQ/YOBAG/QIuEApNda0lcwlbJqDmWMCDtRaX5uZ0CaJziC2lCwpjpDyagAHWaK3RCt1lCUs2DQHgEEm+ngUhla3qnUGsTXaJcbxpbyKgE/ZoMjAxZFSR+TFsmkOBp73gAOVUjfk5bVpvjOIbUVLiieCYDmY51ihx3yp1nphViyb5gCwhj3vwKhW+1lWPuPlOYM0Q9WSYvpSLiVLP9wZuCxS6tC0rVo2xzPmN4dSakVaHknjnUGSKtUmcSIILgfzp620w3yF1vrgpFiWzfEUmM0P8qa+w9IZJOnotlGcL+V3CDjEUktLtVILGmFZNseTI1eOWxvVzfu5M0heBSuaL4S4BERW3v9IwDKl1PyxpLBsjifAPEtr/csipHcGKULlktbwpVxCQO47UsPtEV2pw3DuZneBgmAWMf/QkgR/jz1vVn+t9mtLeA1hnEEaStTeAUKIC0Bk5dkGA9+LlDKbRAwfvl1zPDpy5bijyBFxBilS7ZLWSr1Ed7w+iK7WYfhJy+b4C3verKhWM+9IKfRwBilU7vIWE0KcB6JjLTE0myt83BLWIwTMUkppS3ipYJxBUsnV3sFCyrMBFDa9PYGaD3Mcz4qiaFWC2KaEOIM0Rdbqgkopv8HAF1reAdFDHnBAGIZ3tZKLM0gr1S9pbREEZ4L5xBbS+z3H8QFRFN3TQg7rbjRI2TfORnVj0iMhJWcgb20hS4baLiWFAr6UpxFQ/A4nzA94njcrDMPfpKDbtFBnkKZJW31gIcSpICpyQ7n7wXyA1np1WdRzBinLSBTAw2wqF8fx/gzsDWAvADsUULYZJfqY6OddwK3N/o3iDNKM4SshphDiGBCZZbNvLCG9rJReAPNiz/MWh2H4l6wg4+U5gzRD1ZJhCikvBHBkyWhZo0NATSk1wxrgRkDOIM1QtUSYlp9ol6izF1NhYFGk1Bm2CTqD2Fa0ZHi+lCsJ6CkZrWbQ4aHBwR0HBgYetwnuDGJTzRJiCSn/DWDbElKzTsnmdj/ryTmDWB+m8gBOnzHjrV31+m/Lw6i5TAg4Uil1kc0qziA21SwZlhBiFxD9rmS0mkaHiQ6PwvASmwWcQWyqWUIsKeXfGXhFCalZp8Se12N7SrwziPVhKhegL+UNBOxXLlZNYfP759asmXrvvfc+axPdGcSmmiXE6u7pmerFcUtnxBYhCxPtF4XhT23XcgaxrWgJ8UQQHAvm80pIzRala7VSB9gC2xjHGaQZqpYQ0/f96Z7nLWGgu4T0slIaBNE5zXxlnDNI1qGpYN7wy3W23vpjAP4LRJMBTMrZRm+G/L4MOZumrCbgbgADSqk7LeCNCeEM0kx12xhbStnLQOq9qWy9+akoaZ1BilK6zeo4g4w/oG5FYZud8GnbcQZxBkl7znRUvDOIM0hHnfBpm3UGcQZJe86UPt7dxUo/RO5HenrNKplhnoOQ55mVhX4lGxid9AsgOtc9B2mjEW1FK+5JenbV3RUku3aVyHRzsfINkzNIPv1Kn+1m8+YbImeQfPqVPtutB8k3RM4g+fQrdbZbUZh/eJxB8mtYWgS3Jj3/0DiD5New1AhuV5N8w+MMkk+/0me7fbHyDZEzSD79Sp/tdlbMN0TOIPn0q0S225s3+zA5g2TXrlKZbnf3bMPlDJJNt0pmCSFeCWB/EO3FzHsT0Usr2Qgw/H4Qj/k2t+S2oiPY7rTddPfxR9itKGx3BzTozxnEGaTDLTB++84gziDOIOMo4AziDOIM4gzi3pPuXJBNAXcFcVeQbGdOh2Q5gziDdMipnq1NZxBnkGxnTodkOYM4g3TIqZ6tTWcQZ5BsZ06HZDmDOIN0yKmerU1nEGeQbGdOh2QJIbYD0VNp22VgfqTUsrR5rYp3s3lbpXwb1BVS3gzgPWla4TjujqJoVZqcVsY6g7RS/YrXllKewsDJKdr47dDg4LSBgYE1KXJaGuoM0lL5q19cBMFfwfzqRJ0wz9Ra35EotiRBziAlGYiq0hBCSBCFDfkTnazD8KsN40oW4AxSsgGpIp1dd911y5dsv/25YD5qFP7KIzoxDMNfVbE3Z5AqjlpJOUspd47jeDK6unYF8DDF8X1a69UlpZuIljNIIplcUKcq4AzSqSPv+k6kgDNIIplcUKcq4AzSqSPv+k6kgDNIIplcUKcq4AzSqSPv+k6kgDNIIplcUKcq4AzSqSPv+k6kgDNIIplcUKcqUAmDmMU5MbAfAa8FYDZg/jOYH40977r+MKyVefBGNow+BoY70asJ+BcT/ZWY71IVWBchpZzPzNOJ6DXMPImI/gzgMWY+X2v9WJm1t8Gt9AbxpTyZgFPGaPYZBk6IlLrYhhi2MYQQ7wXRWQCmjIG9lIBTlVIP266dF2942ghwCgHzxsC6B8wnaK1vyVurzPmlNciuvb3bbrt27XICPtpQQOYztdYnNYwrMEAIMQdEyxOUvJ/jeG6ZFhF19/R0e3FsuL+tAX8G81yt9VUJ+qxkSCkNMvy1xPOWg/m9iVVlvlBrfXTi+CYGSimPYGBJihKPeERzyjDjdWSt+ZUAXpeUPwNHlPUqnrSHseJKZ5BpPT1v7opjc+XoSd0c83Kt9XwAnDrXUoIfBCcQ8zczwP0TzHO01j/PkGslxQ+CDxGzuXLskBqQ+fNa63NS55U8oVQGEUKY7+rLQDQ1q24EXMfM87XWT2fFyJqXYQnqi0oR8HwdmNuv1A+zcsiaJ4Q4CERmM4Uts2IwcEqk1KlZ88uYVxqDdAdBjwdcAea35hWKgdtonUnMHZdCDiHl2QCOt1KM+dNa6+9awUoA4gfBwcR8WYLQxiHMZ2mtv9A4sBoRpTDIyN0eM0CvtyhbRMB8pdT9FjFHhZJSXsTA4TbrMNFnojC8wCbmaFgjL/f8ls06DFwUKXWkTcxWYbXcIH4QfJSYvwPg5U0Q4X4CFiildBOwDaR5FZ35zj67GfgEnKiU+kYzsA2mL+VJBJzeFHzmK7XWc5uCXSBoSw0ipfwUA5cCmNTEnv8yciW51WaN3t7ebdeuXbuck9yGzlf4NK3Ul/NBbJ4thDgDRF+0jbsJ3o88otlhGD7X5DpNg2+ZQaSUh46Yo2nNbQT8tEc0PwzD62wU6+7ufpU3YcKyVLehcxQm4Dyl1HE5IF6UKqRcDOCztvDGxSG6+YUJE2bfdfvt/yiknuUiLTFIM773JtHFxraXPT09b67HsbnbMyNJTWsxRJfqMFyYF09KeRkDB+fFSZm/koDZZZwx0KiPwg0C5ptAdGYjYs36PM+PX9/330FES/Pchs7TFwPfqw8OLhgYGBhMizO8Nc922xljH5Q211L8PXXPm72qVvtfS3iFwBRvEKC3kM7GK0J0kg7DVCaVUs5gwNx63aWl/Imu36Kra8Edd9zxZFIeQRC8rM5s5n3tlzSnGXEMPOgBn2riTRPrtIs2iPUGMgMSfV2HYaIfqSO3oY05XpO5nt3EW8G8IMlznmkzZuw0IY6/C+a97FLIjPZoTDS7Pwxvy4xQYGLnGsSITHShDsNx528FQfDRmNmYY/sCx6VxKeawPmHCglUrVz4wVrCU8u0jVz3RGLDQiGfAPFtrfX2hVTMUq5pB1jDRfGI236W3ztDv5inMVw4NDR082vd6IcRsEBlzTLBRi4Avx8DHCHinDTwA944857lzUzx/xozpXr3+XQZ2s1TrThBdD2ZbU0mYiWZHYfh9S/yaAlMlgzzBnjcvqtV+NjKpbqm1h4vMP/Y87+AwDP+5XmU/CBYSs711JiOT+YIg+M8687JMkzFHOwWYH4q7uhb012q/Xv/xyIxcY+ydLZ01dwx53vyBWu1BEQSfB7NZ42LnYF6otTbPwkp5VMUgj3Acz4+i6BcbTuCenr1o3e3WxNOyxxsBAsx34kPMrUgp5XEMWJuZSsCRSqmL1tcPguC1MbMx+D6WzorHRq4kK3zf/yB53hUAdrSEfcvQFlvMG7j99r+txxNBcBSYrU2DYeC4SKnzLPG1ClMFg/wOzPO01mqzrxE9PcGISazcWSKgn4l+AmZr2/SPnLjGDC869thjjx1eGBoyVxJbd5aeiYGDvXV32uzMTCC6/vnnnpt/9913/2tT/kKIT4PocmtnI/NXtNZfs4ZnCajcBiG6m+t1c+W4Z6x+u7u7p3pdXeZKMtayVktSpYNh4HkPmKvGmbq+7777bvXEk0+atS8HpkMvIJro6n8/9dT81atXvzBWNd/3P0GeZ8yfeYr8xtgMfCNS6sQCuktcorwGYTYvZTFXjv9r1I3v+28hzzMmkY1ii/icmf/lERlz/CRJPSGl+atvFnqV42C+Qmud6Gm7EOK/R9aR2LnLV6KVoWYwymkQZvNbw5gj8XoOIcTrRtaA79nis+yvMdHctPf5fSmXEHBEi7mDgAuUUp9Jw2P4OZG5kiR9FVsDcAaWRUqV4g9G6QxCwE+JaN7Gd5SSDpbv+y8ns5Yd+EDSHJtx5kkxrzNHpq2IfCnPIcDapMTUveVY7CSE2APmKs78ptR1R09YqpVaYAkrM0ypDELANRMnTpzb19e3NmtHQRBsHQNmw4cDsmJkzPtN7Hlz+2u1uzPmD6f5Up5GwKI8GFlyR7YfGmt7pUSQUsrd2ezkwjw5UULjK0nL36leGoMQsExZvKyKIDADNcfGQCXAiOpDQ3NXrVo15lPtBBgbQpq6kGkUIjYXZgVB8LY4jq8E0fQ0PY8R+4etJ07cva+vb7O7aBawE0GUwiAMXBwpZf37twiCS8B8WCIlsgf1xfX63P7+/keyQ2yeKYLgWDA3/dkAAZ9VSn3bJveenp431Ov15SB6V15cAj4+3p3AvPiN8oWU1wL4WKO4TT5/xiw1tbK1DgPnRkrZ2exglC6EEOeB6NiUDSYNXzE0ODh3YGDg8aQJaeJEEBwG5kvS5KSJZeDQSCk7mzVsUvidM2e+YssXXjBXkvel4bRpLAGXK6UOyYORJ9eX8hACzJLwxAcDNWOQpwBslzhrlEAGTo+U+lIejCS5UsrTGbC98+K1I+ZYk4RD1pgUOzSmKVHIPKgpU6ZsM2nSpCtzLkv+gVaqVWtY0N3dPdnr6kq1hsV8IyIhxI15/jowsChS6ow0o5onVkr5JQZsPam9SitV1O8bCCH2B5HZ7dDGBM1nmWhOZGn5cYIxISnlVQx8MkHs5iEZ1u5kqjNOkpDyZgDvSYpLwDRjkG+C6ISkSRvHtWrujZU5VpaWvqbVTUq5LwPGJHl2f3l8ZAbtTWnr5433pfwOAem/KjG/T2ttTtCWHb7vTyfP609CICbatz8MbzR/FXZmwFx6tkmSuD6GiQ6PwrBp36sbcfGlPJyADRMHG8W/6HOixToMm/V7piGVIAjeHTObjaJTT9Ak4E91z5uz8azfhgUtB6TdLKLobxnjtTsyY8DMPRv1DxQBZi7c0dHIKy3IgA2/O2Ld5LhEBxPNi8IwyY7nifCyBvlSziNgswmE4+IRnanD0PbvmNQtBEHgx8zmSvKWxMnMDzDz7DLsIC+C4EwwJ5lvxVopL3GPBQUOby9LtBeYZw6XJLoPcXxLV1fXt2q12h/X0xg2iDl8359JnvdjAC8bi+PIVPLzlVI3FNRHwzJSyg8z8zEwzY53MD9ARIs3nq7eELzJAdN7enbrqtdPAFHDjdnM86V6vX5Wf3//fU2mlRheCHEkiMxLhcYyeZ9WqtVThsbtZ2pv70u3eu6512itV48WuMEg5sNp06b9x4QttjB/FaaN/HvJsLOY+wlYqZp0KzHxiIwTKKU8hM16bSLDff2A/ZmAMAZWbzlhwuI0GyTY4JQUIwiC98dm4zrm9bqvSyUKwXyXR/STMAxvTIpXZJyZ7j80NGRMMo2B3QHUCVAxcF87bID9/wkj5NJwEFiwAAAAAElFTkSuQmCC;" vertex="1" parent="1">
          <mxGeometry x="580" y="910" width="30" height="30" as="geometry" />
        </mxCell>
        <mxCell id="atDhAGsUYtWK8VnYLnzi-62" value="" style="edgeStyle=orthogonalEdgeStyle;rounded=0;orthogonalLoop=1;jettySize=auto;html=1;" edge="1" parent="1">
          <mxGeometry relative="1" as="geometry">
            <mxPoint x="494.64" y="720" as="sourcePoint" />
            <mxPoint x="494.64" y="780" as="targetPoint" />
          </mxGeometry>
        </mxCell>
        <mxCell id="atDhAGsUYtWK8VnYLnzi-63" value="任务详情" style="edgeLabel;html=1;align=center;verticalAlign=middle;resizable=0;points=[];" vertex="1" connectable="0" parent="atDhAGsUYtWK8VnYLnzi-62">
          <mxGeometry x="-0.4667" relative="1" as="geometry">
            <mxPoint y="11" as="offset" />
          </mxGeometry>
        </mxCell>
        <mxCell id="atDhAGsUYtWK8VnYLnzi-68" value="营销" style="shape=image;verticalLabelPosition=bottom;labelBackgroundColor=default;verticalAlign=top;aspect=fixed;imageAspect=0;image=data:image/png,iVBORw0KGgoAAAANSUhEUgAAAMgAAADICAYAAACtWK6eAAAAAXNSR0IArs4c6QAAIABJREFUeF7tfQm0HFW19reru08ngDIID0huVwfITVfnqowyKYMgiMqsPBB9DIKgDDL6nJ4CIvqeCokIPkAh8FRUHIMoUxAIModRkq5OAklX34RRJoGkq2/X/tfp3PAnl1tTd3V3VfrUWndlrdQ+++z97fN1TfvsTVCHQkAh4IoAKWwUAgoBdwQUQdTqUAh4IKAIopaHQkARRK0BhUBrCKgrSGu4qVF9goAiSJ8EWrnZGgKKIK3hpkb1CQKKIH0SaOVmawgogrSGmxrVJwgogvRJoJWbrSGgCNIabmpUnyCgCNIngVZutoaAIkhruKlRfYKAIkifBFq52RoCiiCt4aZG9QkCiiB9EmjlZmsIKIK0hltboxbpYqgBDIEoT46jM1EeDB2EfFMxowKCRcwV1jQLzJUUMH/Qsue3NbEaHBoBRZDQkIUfYBbwLl6R3SsFZ18HdDCArcNraY54RgPf2IB2B02s3W2U8a8W9ahhARFQBAkIVCtiZj5zAoE+4TD2J2D9VnS4jWHgTY1wG4P/YlTqV0epW+n6/wgognRgNSzKZfdvEJ8N4KMdUD+eyltTTJcMVmu3dWm+vplGESTCUM/XxfQU6CyAT4xQbQhV9LMGeMaQZS8IMUiJeiCgCBLR8ijp4jwCzgKwYUQqW1XzGgMzipZ9QasK1Dh1ixXZGlg0FdmGLX4D4JDIlEajaHZK2EcOLkYtGnX9qUVdQdqIe0nP7EhEf2i+oo3jwbCY+PCiVX8kjuYlwSZFkBajVNYzxzLo2haHy2H3E3ArEw+zow2niasQ9rA8YdsipzENkOYMMFOOgP0B7NbqXAw+rmjVr2t1fD+PUwRpIfoL9ezpDvjS0EMZ12vg21c46TnbLlvRJEPQY9HkiQMNbWQ/Bu1HhE8HHbdajohOL1Rql4Ud1+/yiiAhV8D8KZntUg49FmoY4/qU5lw2WBm5P9Q4F+FSPr07OdqpIBwdRh+leLvCkvoTYcb0u6wiSIgVUJqM91BKLAOQDTKMgZvAdFmxWrs1iHxYGXMgewBpfCoDBwYcu7Lh2JOHhvFyQPm+F1MECbEETF3cAOCIIEMI+F7Bsr8eRLZdmZIuvkfAV4PoIeCGgmUfGURWyQCKIAFXQSmfuYRYfgT0PV4ldg4uVEfu8ZWMUGBhLr0nkzabgY381DLxJcVK/Rw/OXVeESTQGjB1Ia8a8urheTDjgWLVbvltk5/+IOdLOfEAEXYJIHuEYdm/CyDX1yLqChIg/KYu7vN7zUrA4oJlDwZQ13ERUxeLAWzjM9F9hmV/sOPGJHwCRRCfAJZy2bOJ+GIfsdeQol2MJbVyHNaDuVW2gAY/BODd3vbQWYZVmxkHm+NqgyKIR2Sa3x5SDflqdsArgEQ4vFCx/xinIJfy4nBi/N7TJrkpq5HavTC8Qr6ZU8c4CCiCeCyLIA/mzHx5sVo/LY6ry8xlLgfRKd7k5osLlfq5cbQ/DjYpgrhEwcxP2ArsPOMVJGYsdFKZvYaWvvlcHII51oYlU9bfYqVTn0uA17MRg7RtjMrKJXH0odc2KYK4RKCkZz5PoKt8AvQfhmX/otdB9Jp/gZ45RgN55mER8ecLlfrP4uxHr2xTBHFBvqyLXzPg8UGN7jGs2p69ClyYeU09ew/AH/IY8xvDso8Ko7NfZBVB3G6xdPESgPe4LQRiOrtQrc1IwkIp5bLnEPEP3W2llwyrtlkSfOm2jYog4yBu5ifsA3bu8AhGDaQVk3LfvlCfsLUDpwRAuPpE2r5GZeXfur0A4z6fIsh4BNHF/wD4T9erB+HXhYodOuW8l4vB1MWv4XnLiO8blv2VXtoYx7kVQcaJSikn7ifCrm4BY/AXilb9yjgG1M2mhXrmZAd0hatPMUiTiSOeiiDjX0Hkh7NJrgFj/oBRrc+LY0DdbCrnMh9gIvl13e1Yblj25CT51A1bFUHGoDxvR2Q2eFHY7lcPvFy0bNeH924ErdU5TF38E8AmbuPf2MwWOz2Ceqv618VxiiBjojp/IDs1pfEi1+cP8JyCVd8viYvB1DNzANrXzfYU09TBau3pJPrWKZsVQcYg6/sGi/kuo1r/cKcC0km9Zi57J4j3dp2DtH2Myso7O2lD0nQrgowlSC5zPIiu8Xj+SDBBMneCyJUgzHx8sVpvp1JL0ta/r72KIGMgKuviPAbO70eCEHBewbK/7btq+khAEWRMsEu6OF8uFI81UDUsO56F4nwWbikvKuRR5E7+MKiSpWuDqAiyBh4MaOVc9g7P+3RgpWHZE5P4I2rqYgWACa5v6FY9X+1DsoWPOpoIKIKMLoSF+oSPOOBvAbyH39owLDuRuJm6CLDw6R4H9O3p1so5fjj0w/lEBjrKwFQHMPENTXwraNkcOXeDtT2Hqiu7WrWkXZ/n5ybskSJnblA9smzRPx37wt2HIa86fXv0NUFKevZAAn8TwM5hVgAB5xcS1l7AzItvghHqAZwIDxLowmmV2l/C4LMuyfYlQe4E0lvkM98PWOfqHfGWFROLln1QkhZCSRc3EfCJVmwm4kv+tWn9q/34lb3vCDJaPnQWgJYXOIFvL1h1WXE9MUdZz9zOoI+0ajCB52iN9PGDIYtutzpfXMb1FUHkvghm55fskakbODCcnmxU31oeWL6HguWBiZNZa4SqJj+euQwsBviofuo30jcEWZTPbN9gkiV8AhWe9lvPGvgL0xKS8m7mMl8E0U/8fAp4vk5EhxYqtb8GlE+0WF8QxDe/arwQEr0A5n/ziO5fDctu6Z6+2yvGzIm/gvAxt3kJ9DyDNw9lF/MJRrXunpITSll8hdd5gpTz2XOYvfZjrx0cBj+vAV8maBs74B/5hC729W1NXfw7ANlD0eOgMwjOKwB+wKDARGHg60XL/l58l3f7lq3TBDF1IbeQ/ndQmBh8Ozl0rjFsPzl/AJukNCGbzbhXVSS626jU3LNjg07cQTlTz871+fhZnQh727yFV8pbZbZFo0mSwOn863rJoHWWIKV89jRi/nHgtcf4oVG1v7ymfEkX3yXga146HOLPT49pTakgtb2Y8N1ixf7GWn7nMj8kosDtEZjpgE41CQocvw4JrpMEWZjLHOcQyVe5vgcDtgY+sWDVfz5WeGFeFB2GvIpkPBSthEOHGcO1W3wn66JAOZ/9GDPLesFeLyVqpGG7wlLbHGtaWc/8hwO6hoB0ELNTjrP34PDI3UFkkySzzhEkaC8PGSQCvwDwJwvWyN/dglbWM5cy6HTPO3jw8wWrvkWcAm/qmecB8nrJAIAvNaz6GW52l/TsQQSWlSN9qsSv0uBovNv0pfUH4oRDu7asUwRZkEvvmQraZQlY7KS1fYeeWWl5gbggv96WKR6Zy8BUH7AXGZY9rd2ARDG+pItFFMDehpbZ06+ucHlyZltOkbw6BvkBeK5B/PGhSj1ck9MonO6QjnWGIKPFpm8GUPDDioFHipa9k5/c6vNmLvM5EF3tJ8/MdxV7vB3XzHnvGnzbB+bPGdV60NtQKutC7lXfyg8DACWQ9omkFNXz82fdIYgu5K3AZ/wcBuhew6p51akdV0XwBp58Z6qRPqbbKRmLJ03MjaRG/s9rS+0ajt1gtNDIM8AbsdVT/NKw7M/6xyL+EusEQRbkMqdoRJcHgHupYdlBfgXfoWr0Feht7Htf33y4eRIOvmVU7dkBbGpbpJwThzI1M3Xf56+MX4BD+8lX2f6y75Qwc+JxELb1Hct8ilGt/6+vXMwFEk8QuXCdBv2NPOo9yRjID4BpUc8PLkat1ZiYfgUd3qGYZ2bS9fO3eQavtTqn17glU7BRzcmcD5Drg/bY8e0WZuAdkSm/KGSrOb8fmn9SivctLKnLt4CJPRJPEFMXNwbIzH2dwftEkWQXpOvUmNXwOEDXpTOZ66c+/cYLUayUf2y1/uapkZGjNeJjAGwXVGdU7Z9XFcPmBwHe1GfuPxuWfXBQ++Iol2iClHXxVQb8Uh3qDPpk0ar9OaoAlHTxZwIODKOPwM87hOvThBsGW3wVWsqndyMmmTpytP8r3LWtY+DPxQgXq+zL7pB2u2fF+OaVG18rWnbgbIYwmHZDNrEEka90NdJkiwLPD1kEPrZg1f8vajBNPTMDoDNb0UtAlYEHiPi2BuGpFOjVEWReXQ9vvir1vYX1N0qjvlEDvFGK8V5mkntPZP91z2aibrYw8YxipX52K7Z6jSnrmWMZ5FlHixkjGpx9CtWRRG1RXu13Ygli5sXNYBzgHXS6wrBqX4x6YazWFywRsFOzB9Z7pGHZNwSWDilY0rNXEPhkz2GMm42q/fGQqmMhnkiClPXMMezTdw+MJ9ix9y0ugyzY3LGjNJDeC6RdRYRYfCRc7ahsMAp2Tip2OP2jPAmbckrM8XuzReBjxkvn6VhgIlKcOILMnw6RekPIjU87eGHAoIOKVu2miHDyVDN/0gQ9lW6cA9CXujGf/xx8aWMkdfHQcu8sAX89wSRGi1/4PeM98sZm9m5J29eeOIIszGfPdZh/4Bk6wkVGxf6vYOGNTmrRlAl7O45zLrdYHKFdSxj4CzTth8WlK+9qV1fY8WZefAeMtbKCx+pgoi8XKzWPXolhZ+28fKII8sTkiQPZVENePbweVh8xQqSRdAJiM585AUwnhS0n1Kot3CzPw1cZld7t8GNApqM8DGBHNz/kywk4qd0Kwytkg6JEHIkiSCknfkCEc71vrfjkolX362/eleCYefEZMH8OoH06MyHfAaJZRsX+ZWf0h9Na0jMnk0ebt1FtPzAs27X/Y7gZOy+dGIIsyGd20FYVXXDv1Ar0/OoxXsjMnDgERB8j4u2Ysb3ftwOPsNtMeAxMjzvMNw91KZUl6DIMchUBYKeIdx1MSMZvYghi6uL7ANba8feOe1zE5+rhtqjkSwa8ntk+o0GSZdDRaBKBt4RDk0DYsjmO8SzAyxn0rAZe7hAWaQ4eG3l3/fGhBXBtDxd0IXdSLuBVJDEddRNBkCc2x/rZrHgKwBSP4Mby6tHJxRhH3fIqYupiHnm/ZVzyxoj93p2W4604+rCmTYkgSCmXOY58ttByAq4ecV8MUdkX5CrC4OOKVv26qObslJ5EEMTUhSye7PUl9umXHft9/V6JvFOLJKzeeZOw3gZp8Q8AW7uNla+ki5YdKp8trB1RyMeeIAH6e8t79ouMave/e0QRgHVVRykvLiLG1z39S0C/+dgTJMjDucN43/SqLZ9R1BETBEoD4n2kwW9TVuwf1mNNkCAP50z4dbFifzom60KZsQYCpi5+DeBID1Bi/7Aea4IszIvDHcbvvVZdg3Fo3L4HKJasQmB0K7CszeV6MOFTxYrtGeNe4hlrggS4j33YsOxQ3aF6CXY/zm2uSj/xqiDzP4ZlfzWu2MSaIL57PsYpFxpXoPvVLlPPzPTaM8/gO4tWvUOpOO2jHluCyDZpW+riZQDvcnPTcXD49GHb8xLePkRKQzsILJwiPu04uN5DxxsFy96IgEY783RqbGwJUh7I7MwaPejleC0jNt82okIInQK43/WaufUmgUZ8snedDxnWyL1xxCq+BMllTmGPWlcEPFSw7F3iCKqyaW0Eyrp4jD2qrxDRuYVK7eI44hZbgpRy4noiuL6+JeaLC9W6Z+p7HAHvR5vKucyPmeg0D99/Z1j2EXHEJrYEMXOiAoLu/n4Qh3arcmEcA5ckm8p5cRgz/uBh87Bh2bk4+hRLgjy9NTasj4hmCRy3Q4O2zTRr5TNxBFXZtDYCi3LZbRrEi71wyaTtjTpVgbKdeMSSIOaAeD+0ZuMat6NuWLbXxql2MFFjO4CAqQu5j8W9EZGDbVutF9wBc99WGUuCjDZukSVF3Y6nDMsOUKi5k9Ap3WEQMPVmdu973cYw6OAoq1+Gsc1LNpYEKeezp7FHf0EGfl+07E9FBYLS03kETF38DsAn3WYiotMLldplnbck3AyxJIiZEz+AV3GGHpX1CQetkl4TAd+0oZhmRcSTILqQpTJdX/sltUpfP1NGNgVlkFeN5N8ali0Lc8fqiCtB5Bd0ryREeT8rAHrPaAn+CoEqDLZAqDCzBdYqG3Btbm4YK2KF+DpmzPJJWO/NVHaPEXLyIMoTy1fzlAdYvqLPA/QSwLL8q3xI93pufMiI4YffWBKkpGeeI9Dmkawlwi0Euslp8NzisC2JpY42ESjpmR2J6QAm2p/Ae7aprjlcNjgqxqxTsLQrVgRpNuJ0nONB+GYUoI/VwcBjBL47BfrpoGUv6MQc66rO+boY0sAnAbQvAUMd8ZNxITRtVpwagMaCIHJ7JlJ8PDEdD2CjjoC/hlJCsyXaDE3YMwYX4/VOz5dk/fO2xobrj4izCDgraL/0Nv19lYlnoUGz4nDF7ylBVn0xb/bYk3k6no1w2gR93OEEzJfNZYxK3bfFcyfmj7vOBfnMicQkyTG927bKxjvQ+MciVb+gl1/Ye0aQVeU4cX6YHnsdDNKtgHNhXFOuO+j3uKrNXGYnJrqIANnZqqcHAY8x44Je5d31hCDttC/rYLTeYqKvFGP4saqDPr9D9YIBcZimYRaADbs5r/9cPNOw6vI2r6tH1wli+nzj6Kr340zmMK6ZXrVP6LUdvZi/pGdPJ/ClvZg74Jy3Gpbt03YvoKaAYl0lSFnP3Mag/QLaNlasBkaFCPdpDb6SSHuphtrLQ8N4uTwwcTIwMrmRoskEmkzsDHJ7b1seNSzbtc9Fi/bHelhJFzcScFCLRpYJfJtD2kINvAwNXgakl8k+IPMHsEkW2U3q3NgMKToZRLsRy+8jyLY41z8My35/i2NDD+saQcy8qKD5ESn4wcCbAO4ipquMas0reXFcpYsHslPrmrMPiD5MjKOCz9yUZMOytZBjEilu6oJbMPwGDfR3EM+ZVrFLYcebuezBRHwyA3sDWC/ceHrJsGqbhRvTmnRXCGLqQr5KdS2+MNZ0Ap5mxiyjal/UmlvvHCX7erOmncmMw0LovNGw7ENCyCdOtKyLRxnNniWBDmb8keHMnF4dmRtoQAChsi7OY+AYr1q+71TDLxhWPZqPyR42dpwgpp6ZIz8uBcBJikginWhY9m8DyocWK+fEkQ5wFhEC7WdnotPX1Qd3MyeuBuFzQUAkxgMNYOb0qv2bIPKtyJTzmRPBdCkDE4OMZ+bLi9W611beIGo8ZTpKkLIuvsvA1wJaeWuqkTpxcNmK4YDybYmFeVlAjMMKVftPbU0Ys8GlfPY08thSsKa5DLqyaNW+0A0XRmv6ypZygfb7dPoHrGMEGf3OEWhRMXBB0bLlN5GuHkFJQsCrzLyfUa3P66qBHZrM1NMfBLTbEeCXmoDzC5Z9QYdMcVXrV7RjrYFMh7TyjBrEp44QRLYZS78p5jL738Yw0wHFau3WIMZ2QsbMZy8H8ykBdHf9FWMAm1oSKeni1iAfAXtFjtVOBey/DmY86LzL3rMT7ek6QpDRhy7/KwLjO0bV7khiYpiVU9LF+QSc5zuG+MSkp6WMtqj+mZ+v3bi/97NBng/SrUrKdYrMkRNk/kBml5RG8g2HX1GFWP0iByGJzN3ShL17UhMcF03Fu0dscX+A3KobDMv2alsQZG1HJlPKZX5M3nW15Fw2ObxHYbj+UGQTdyLd3dSFfO7wfDUqF1rBsl038EfpYBhdJT17BYFP9hrTqV+qMHa2KhvkRwBArMjx9u1WLnMnEclvJl7HbMOyD20Vn/HGRXoFWZTP7NBgesTHwNeJnQML1ZF7onQkKl3lnLifCbt66HutAew+lLD9JHI/Rwq4zydl/X7DsnePCsso9TTfbqXoDjB7fiB0iHecXqk/GtXckRKknBcXsX9fulOMav1/o3Igaj3yO4nsWuWlVwPPnNaDxLl2fA2SIOowjurkd4527JdjzVzmiyD6iecVnvDdQsX+RrtzrR4fGUEYSJV1MR9AwcO4pSlhbxv3e3gzL/4IhtelOnF1uUq6eJQ8vpjLL+TFqn14VAurE3rkM1TDFrLvoczlcjvKBcueToAThQ2REcTUhaxI4f2VNSHlekoD6b1I0+7yAjjqS3kUwXTTEaShpsbOXtMiTB/plD9mXnwHDL8rxL9HlY0RGUECPODWNcK2rSS2dQpsL71+HxEJ+HrBsr/XC9vCzun31TxJjVAX5kWx4eBJIvcdqAS6qmDVPF+2BMUwMoKYupCv1z7gNjEB1xYsW+45T8Rh6tkvAfwjV2OJ7jIqtQ8nwRlTF7cA+Kh7bPikglX/aRJ8kTaWdTGLgeM87H3csOzACZiezzRRgCJz/lOakLWPXA8N2n7TrJVzopivGzrm62J6CpDPVK7H+o69Xtzrbs2bhPU2SAu5bcD1aDg0ODRc86y+3g3Mg86xUJ/wEQeOTJVxPbhhb1pcBs81GWS+SK4gZX3CvgzHa/HHtv+DF0hmXpTBmOYmk2L66GC1dlsQoHslY07JHgCHb3abn4GnigksBG7qQrZ1m+R6VST6eKFSc/U7aDwiIYj/Byj+m2HVg6a8B7W943J+nZEI8b818U/V6M1e73aDZ+rZuQDv4UH884sRJFlGRJDslXKxuDtNVxhW7YvtgtLt8X5V5hGTXDIvXPy+TRHRqYVKzfPbQrdxDzJfSRezyPM5hK40IkjRj4Qgpi7kdljX/czEdHahWpsRxPE4yQRoHfZzw7LlTrjYHqYufgHgM24GOozDpidwr4uZE98A4TsewEeyGzQqgsh9Eq5FDhh0UNGq3RTbVeRi2Gji5QPul3GaW7Rqe8XZL1PP3gPwh1zv1Zl3LlTrD8fZh/FsK+XF4cT4vYfd8wzLdn2rGtTfqAji+cDEDSoUl9UWBjUqLnKLJk8caKQaVQ97lhqWvVVc7B3PDt9iGZyebFTfWh5nH8azTX4PcRhe9ZWXGZY90K5fURHEsyqGYdmRzNOus2HHM0BlXXilLMS68knS7feLl081lkhiE8nCNXWx1Cs/hpzUgKyR5Odw3M4vnjQxN5JuWO63WPEs2b+mvWY+8wKYXDNgkxobWQuNtYZX/YJIru4REcT7lVvD4V2GIt7I0g0ylfLp3Ym1ez3m6moRs1Z8LuniKa92BY7Gu01fWnd9zmplzm6MKQ9kdmaNZKOlcQ9GNM+HERFE/BzAZ90fBJNZFcQvAZPAcwpWvdVKkd1YRzD1zB0A7eMx2RGGZcsGm4k6FuTFYRrjDx5GR/KGMRqC+GRYyu2ShUrt8kRFQOb85LJnM/HFrnYzrjeqtusr1Dj4W86LX7FnVUk6y7BqM+Ngaxgb/BIwo/pGFQlBSnrmJAJd6e4g/8iw6meGASAOsqW8uJ4Yn/bwqycVx8NgY+qZHwH0pU7/0oaxKQrZsp65lEGnu961RJTlEA1BctmPErHMGHU7ErfBSDri3yuRzjCsWpyrocM3KxndKeEZBSnW1GHmRBnU+Ty5SAhSHcDENzXxlhcIScsYLevpDzE0z33zKeC9g5btmfEb9cIIq688RRjswLO4tMPOXlHW2g1rY1j5bmZaR0IQ6aCZFzeD4dq7IQmJfWv9QuXFN8H4tkfwlhiWvXXY4PZCvqyLRQxM9XiWikV9sqDY+F4VI9yrExlByvnsqcx8mZuTSdq11iS8zyYjBq4tJmQDmF9WMoBHDMveKegC7bVcN3d7RkaQdWrfsy4+BcCzwjyDjyta9et6vViCzF/KiU8T4XovWQafXLTqVwXR10uZbtcLiIwgqx5qk185o+lHPnsXMXslIbKT0raavmRlpZeLJejcT289Qa+POH62JuIq0u2KM5ESJEjtJdnpqdDBHhNBF42bnJnLHA+iazz1MF1tVGsntjtXN8cH6QUS96vIgpw4SiP8ygu3qGuWRUqQRbqY3gDu96rex4wHilV7t24ujqBzlSdhU06JOSBs63k7Qs4Hi5URWaUwMcdoy4O/+xj8DyelHRTHK6NMvDTz4n7y7hgQedXLSAkiwQ9Y2f23hmXLOlqxOsp69ioGf97LKCL8qlCxj46V4QGNKeXFrwL0aoxVUfHVrpl69gr41E1mIJJttmvCGTlBZPU7xxb3MTDkE7dYkcQ3dWHUmaRVZ1kzBgv07H4a2L/IBGGWUbEDtWYLyM22xPxrHgAMzKeJ9m5GGf9qa7IxgyMniNQftAcFmH9iVOunRulQK7rMnLgQhP8KMDby6uEB5oxUxNTFbAAH+yll4HtFy/66n1ynzwchR9MG4hOMSt372bEFYztCkCZJfL4jrLa1V+3XVs9f1sWfGTjQFzvCv+DwPklvwzaaISBrSk3w9XlVp+GeXUkCd/8i3GJU7I/5+tOCQAcJ0uyDJy/nvj2we0USMyce93sgX42pRvjktIrtlV7dAvy9GWLq2TMBDlREg8D3FKz6nt221O9j4Br2vMrgjxStul/bjZZc6BhBpDVB7+ulbFc7qU6ZsDc5zrU+VcLXADSZKeFeK8Kv2smYsUtSjnb84PDKu1taZSEGjW4TlkXQjwgyrNMdiDtKkOatVohe3PIVsAbM7OR3ErkwCDhKtmsIEgAQ3W1Uan6djQKpipuQqQvTp13FmiY3wPhNJ/e/yN4sAM70aWD0tk1EdHqhUnNNb4oC744TpHkl8fnCPtYR2asiBWdmlOX4SwPiaE3D9xmYHAI4B4zDjaotH2zXuaOcE4eC8LvAPxarEFgGB18xhm3ZyzySY2EuvSdDk8Q4LITCSOpe+c3XFYI0ryS68Kx84mLoDQDdqxHf3krbhAVbTcinG3yIw85h8O9v544V811Esjp9MnKv/IJeymWOI007FswtXxmZ8KDGuLnh0PXTh2uL/OYce37+QHZqWnM+7BDtE+DbzDvUd6tSTtcIMkoSzwqMPiCXSb7DJ60Mh5eNMC9PI71MVktZMmX9Ld5ie8s0tC3YcbYgoi2Yef+2SDG+MY8DdO0KrXbd9kvxathF0Uv5JVOwUc3JHkfgYxnYLmJb7iPgJmZ+jjTtOSLn2TrEc0NL33xOVh8BRiY3QJNTKZrE7AwCJOs0t9RXiaV1AAAFEElEQVTElYHHipa9Q8T2u6rrKkFW3W5lTydwrHfhBQB/qex3MqLx7KGl9ccDyPdMZOGUzHYNhw4l4FgAU3pmSBQTM64xqvYJUagKqqPrBJGGjd77yiYoGwU1NLZyhFuY+U+OJmbLX8w42CmvqLWGfShTkxiujXPiYGtAG95ioq8UO/xAPp4tPSFI83Yrl9kJRLL4cAwCyC8A9G8Bg+Um9ioBf2LGn3r1UC9/eBzCoRpwSPs/PpFg0iakzeG3Mjnf7lVyaM8Isho5mZZCTGcFyN2KAuyxOp4FMLOxgT0z9eaEDxI75zDwiXYnYvDzBHoCjCeh4fF0gx6cGnEHJzM/YSsNzvYOsAMYst2Y/NuyfdvxFyLt4lRm5X11W5ypAWdEoTesXQTMZ+IZRqV+ddixUcr3nCDSmdEER0mSs30a3UfoO890UqmZY1O75X4QIpJE8Uu2DGVLkzRMjxLhQQK9wnBeIWivOGi8koL2SobSrzC99YpUWmust0mDRjYGnI01pDbm5r/axgzeeLSK/o4UARnGOPAUmC8xqvVZa/5/acqEKSmncYYD6krZJgJeAzBDE/aMOLQLjwVBVgdk1X4SPolBH/EqlxlqZa4tLKuY/wIOfmkM27Lf9rjHvK2x4fojQpL1HALWb2O+JAx9g4FL0sK+2GtBmgPi/dCa1TNloTzX1mdtOPwowHNToJ8OWrZX1fY2pgg/NFYEWeuXS8/sqDF9lDXaH97bX/28HgHwEEA30Ejtl4XleMlvwNu3fwPi/aw1SRLrJjlB/RkrR8B17OASrx+LsWPkprJGOvtZDSz38+yMoBkJ4xnJuIU0uinl8N1Tq/ZTrfrRyXGxJciaTi+fhPVeS2X3ADl5ItLByAOUB1gfzaeSewBeB5p7AeS/zzLR39FozBNi5LFtnmletls+FuSzH9dYpoizTBNv+z6/ZUOiGfgsg27UCLPbbXL5pI6NM5zdmTT+ALhJls1Hb5Hftca/FYAsgCsgVJjZAmuVV7g2d/dhrIjGpc5pSQRBOud+OM1Pb40NR0YyBzugQ2jVnopMOA09k64DmE3gGzVRnx2He/ueIRFyYkWQkICtFl+oT9iamQ9hzTkYTC2nbLQ4fbBhzHeBtNka6MZp1spngg1SUmsioAgSwXpY1atC2xVgWXxN/hUjUBteBeFJOJhHGj060nAeTmJPlvBOd3aEIkgH8JWdqTjd2GWEeVcibZdR4vjv4AtnywoC3+uA7gPoYeLUo0nsNRjO5e5LK4J0CfMF+cwOmkM50ngzh2kzjXhTlq3RGJuBsCmAzRhotkoj4EXIP8ZLILxIxC86TC9pxC+yQy82NLaGKvXHumR6X0+jCNLX4VfO+yGgCOKHkDrf1wgogvR1+JXzfggogvghpM73NQKKIH0dfuW8HwKKIH4IqfN9jYAiSF+HXznvh4AiiB9C6nxfI6AI0tfhV877IaAI4oeQOt/XCCiC9HX4lfN+CCiC+CGkzvc1AoogfR1+5bwfAoogfgip832NgCJIX4dfOe+HgCKIH0LqfF8joAjS1+FXzvshoAjih5A639cIKIL0dfiV834IKIL4IaTO9zUCiiB9HX7lvB8CiiB+CKnzfY2AIkhfh18574eAIogfQup8XyOgCNLX4VfO+yGgCOKHkDrf1wgogvR1+JXzfggogvghpM73NQKKIH0dfuW8HwKKIH4IqfN9jYAiSF+HXznvh4AiiB9C6nxfI/D/AAw6H4xSxE4XAAAAAElFTkSuQmCC;" vertex="1" parent="1">
          <mxGeometry x="469.14" y="783" width="50" height="50" as="geometry" />
        </mxCell>
        <mxCell id="atDhAGsUYtWK8VnYLnzi-69" value="" style="endArrow=classic;html=1;rounded=0;exitX=0.483;exitY=-0.193;exitDx=0;exitDy=0;exitPerimeter=0;entryX=1;entryY=0.5;entryDx=0;entryDy=0;" edge="1" parent="1" source="atDhAGsUYtWK8VnYLnzi-59" target="atDhAGsUYtWK8VnYLnzi-68">
          <mxGeometry width="50" height="50" relative="1" as="geometry">
            <mxPoint x="420" y="770" as="sourcePoint" />
            <mxPoint x="340" y="830" as="targetPoint" />
            <Array as="points">
              <mxPoint x="594" y="810" />
            </Array>
          </mxGeometry>
        </mxCell>
        <mxCell id="atDhAGsUYtWK8VnYLnzi-71" value="" style="endArrow=none;dashed=1;html=1;dashPattern=1 3;strokeWidth=2;rounded=0;" edge="1" parent="1">
          <mxGeometry width="50" height="50" relative="1" as="geometry">
            <mxPoint x="640" y="1050" as="sourcePoint" />
            <mxPoint x="640" y="520" as="targetPoint" />
          </mxGeometry>
        </mxCell>
        <mxCell id="atDhAGsUYtWK8VnYLnzi-72" value="招商活动小二" style="shape=image;verticalLabelPosition=bottom;labelBackgroundColor=default;verticalAlign=top;aspect=fixed;imageAspect=0;image=data:image/png,iVBORw0KGgoAAAANSUhEUgAAAMgAAADICAYAAACtWK6eAAAAAXNSR0IArs4c6QAAEjNJREFUeF7tnQvwdVMZxh9DdFERRRIjlyapSJFSqSjXEdVUGEZJ0tVdxkTTSCiV6F4jRTfKiOiGlESikJIwlEiJlKQymh/rTMf3nXP+e62991lr7/28M3vO32e9a73redezL+vyvkvIYgSMwFQEljA2RsAITEfABPHoMAIzEDBBPDyMgAniMWAE0hDwEyQNN2sNBAETZCCOdjfTEDBB0nCz1kAQMEEG4mh3Mw0BEyQNN2sNBAETZCCOdjfTEDBB0nCz1kAQMEEG4mh3Mw0BEyQNN2sNBAETZCCOdjfTEDBB0nCz1kAQMEEG4mh3Mw0BEyQNN2sNBAETZCCOdjfTEDBB0nCz1kAQMEEG4mh3Mw0BEyQNN2sNBAETZCCOdjfTEDBB0nCz1kAQMEHKcfTyklYP5two6Y5yTBuuJSbI/H2/hqRtJK0bCLFa+H30Iqb8XRJEuSn8Xi3pLEk3zN/k4bZogrTv+2UkvShc20pav2aTv5B0pqQLwnVvzfqsPgMBE6S94bGmpH0k7SjpiS01c4ukb0j6sKTrWmpj0NWaIM27nycGxOB6QvPVT6zxtkASiOInSoOgmyANgilpZ0n7Snp2s9VWru0yScdKOrmyhgvORMAEaWaA8KT4RHidaqbGerXw2rWXpD/Xq8baJkj9MfAcSSdJelr9qhqtgVmvXSX9vNFaB1aZCVLP4a+SdGq9KlrVvl8SNn6z1VZ6XLkJku5cPsJ53++CYOtHumBoaTaaIGkeeYOkz6WpZtPaXdKJ2VrvaMMmSLzjnifponi1IjSw/eIiLOmIESZInKPWkXRNnEpxpdeW9LvirCrUIBOkumNWkHSOJGatmpJ/SPqxpOvHLup+yti1qaRlm2pQ0iWStpL01wbr7G1VJkg114ITM0HbVys+sxTTrmdL+oGk8yvWt5mkzcPAbmIR8nRJO1Rse9DFTJBq7t9b0gnVik4txV6p48P138S6lpL0NklvD0+YxGoeUKNPLG5aZiBggiw8PB4ZXkuevnDRqSUOD8S4vUYd46orBqIcVqO+qyRtJOmeGnX0XtUEWdjF+0s6ZuFiU0u8S9JHa+jPUqVuNiimCn37UKryEPRMkNle5k7NRy2HnFKE7Se/SVGM0KENtpWkCJMDPEWaerKl2FC0jgky2z3vkfTeRA+uIonzGvMQ2ro5sSH6+L5E3d6rmSCzXfxbSawbxMp24dRfrF6d8rR5RkIF9PGpCXqDUDFBprv5ZZK+nzAK+CBPfeokNPcQFdpO+XCnr+fWbbyP+ibIdK8eLemASKczlbtxxnd6vpnYSsJCY4zQ14NiFIZS1gSZ7mmCIzwrciCUsGs2ZZcxfd0gsq+DKG6CTHYzd+DYIAgcd2VG6L7MI4fFRJ4isSvu9NkhhRZxngkyeTSzUn1c5EBnreTASJ22imMLaxwxQp9Z6beMIWCCTB4OH5f0lsiRsnXYYxWp1kpxbCHIXIzQ57fGKAyhrAky2csMLgZZVbm74R23VdudVY6dwo+KqIg+E9jO4ifIgmPgSknrLVjq/wXYBs8W8pKEHcNbRhjE3qxnRJQfRFE/QSa7+S5Ji8bKnTUgSnw9YfcxO3arCrGAH1O18FDKmSCLe/pxCesYJW7620/SByMHMn13VHm/Ys0cNgSXvjxyYBF/t7TQOhyIIoBcjLAWwpqIJSDgJ8jiQ4FBwppGjJggMWh1qKwJsriz2K4RG7KzL69Y9N1b3/2KteAtjGlbThJWlT58pP8zclq4KjadLucnyGT3ccgpZgt4H6Z56XNp8YWzk8sEmeyC70raIsI7d0oix2BJwmzUchEG0edXRJQfRFETZLKbCStKeNEY2UTST2MUWiybEv2RPu/Rok2drNoEmew2Dh1x+ChGDpZ0VIxCi2Wx5cjI+nMe9Io0dX7FTZDJWHMOJHY9oKTvkNhtJqBAn6+Y39DrRksmyHQ/cR4k9mTebiGZTk7vY0NsFHf6ulZOo0tt2wSZ7hm2abBdI0a4A79AEjtpcwj7xy5M2HRIX2OPF+fo39zbNEGmQ75NYmSSnO/yqUEb6Ou35z76OtCgCTLdSSwUcgQ1JZVzm9EUp1mcGmXxTyEwnkOQTkDWBJl9F/uUpD0Tb3TziKo4Mq1OdEX6SEZciwkSPQaY2SH06NLRmg8qsHjIImKbQhupuT7uDYEmPHs1xUN+giw8dAkOzetLqhBdJHb7fNW2qLtOmmf6tm/VxoZYzgRZ2OuEHuUpErNtY7xWUjG/OuFsxkKW1U1BzVYUwhQ5HdsMpE2QhYbhg///CEmHVCs6tRRhTFmfOLlmPbtIYq2DjFN1hD4dWqeCIeiaINW8vKqk8xpaTPtZCMlzmiQCJVQRAkjwxCDqSBM5Eq+VRFq3P1ZpfMhlTJDq3mdwfqt68UoliYBInbzucPGxjU/48B5dRG0n3m+T4nWPimiaIBWBCsX4oO16Rib6UCcrVRxiHS9tgsQ78GMhP2C8Zn4NUsHVmZHL34M5W2CCpAFOBJNXpqlm0yLCCd8xlggETJAIsBYp+hVJr01Xn6vmlyXtNNcWe9KYCVLPkWzRKD3XODayncSSgIAJkgDaIirbSzq9fjWt1IBtKXkLWzGmi5WaIM14jTMgnOmOiYTSTMuTa7lG0hvD2ZA22+l93SZIcy5mMZEpVFKg5RSmcI+V9IecRvSlbROkeU8S3QSSvKb5qmfW+PWwvnHRnNvtdXMmSHvuhSAQBcK0KRCCpwYEsTSMgAnSMKATqiMHORsL+X1uQ82xn+sHIY87v5aWEDBBWgJ2SrWrh+iFZH5aQxLBoh8vaZkp5TnQRCDtv4Tjv4QW+o6kG+dr9nBbM0HK8D3RSEZkwaIRKcj6ZMmIgAmSEXw3XT4CJkj5PrKFGREwQTKC76bLR8AEKd9HtjAjAiZIRvDddPkImCDl+8gWZkTABMkIvpsuHwETpHwf2cKMCJggGcF30+UjYIKU7yNbmBEBEyQj+G66fARMkPJ9ZAszImCCzAf8ZSWtNOVaeZF/xyKS2nDdOvb36N/Gf3OlepsPagW0YoK044QNJZGrnLPqXKu104xukvSjcJGj/ZcttTPYak2Q+q5fRRKEGCcFT4wcQmxfCANZLg1X2wl8cvRzbm2aIPFQLxkiFHJCcESM+Frmo/FvSRzJhSwk6Tx3Ps32pxUTpLovyeZE6E6uUsL7VLf+wZI8WQhBSuhUJ86pgJ4JMhskTvpBCDJEkTKgL/KfQJQRWfhvywQETJDJw2LTsafFk3s+cniSjIjCE8YyhoAJ8tDhQDTCnSW9ZKCjhAgpp0j6/ED7v1i3TZAHIdk65M3YwgPjAQTODomCBh9SaOgEWT8Ed9vVxJiIAJHrCWM62A/6oRKEVW0yLXE93OSYiQAhiEg7B1EG9zE/RIK8IxCDwG2W6ggQzRGSkDhoMDIkgjBVyxODrR8lyF1jAeK4S4+CxWEb0RZHgeRGfz+mBKMlnRqIMogg2UMgCK9QvCLsnWmAsYp9QbgIGUoYUchAWNEYITzpiCyEMH1RuJrImx5jB2Xvl7TfELLl9p0gbAWBHC+OHQE1yl8Y9kP9RBLX7TXqqqLKk+b54Xph+K2i10QZkgZBlL81UVmJdfSZILsFcqzQMvBsP+e14/xAiD+23N5C1bN5EsJsJmlHSU9cSKHm/784JA7iZtA76StBPiDpoJa99f1ADMjR9lMitSvLBZJAlDa3ynAuZf8+JgvtI0FOC4MidVDN0vv9GCm6dsdkzWeHgM16bYATMv7m+tZrpUt9IwgHhp7ZAlJnSYJ4PC36kJKA7Lc8VdpYIOUbjL1svZA+EeSfkh7RsFdIVvPJgtM81+0ukxfvDE+WunWN6/PKxU7ozktfCEJG1yc16A0+uCHGVxuss+SqXhvWiDgm3JRcJekZTVWWq54+EOS8MGPTBIYsfrH/6ItNVNbBOkbbb1hnaUI+K+lNTVSUq46uE+RrDaVbvlLScZJw6NCFaeERUZZuAAxmFN/dQD1ZqugyQb7Q0EcmZ7WZeXFizIcOQY4Yc9NoYmsOU+5HZxnhNRvtKkG4w5EbvK58WtKb61bSY30CVHxJ0usa6CNHlzm52CnpIkHYg/Q9SXUf/wdLOqpT3spnLHf/A2o2z0QKB9N4ne2MdI0gxJuCHHVmW+4Jrw2Xd8ZLZRjKbuiv1zSF2cGtJP2rZj1zU+8aQereydg3VIdcc3NMoQ09VtI1IVRqqolHSDo0VXneel0iCIta3IFSBd2hBmNIxWyaHjeajRIrvTvcpFgnKV66RBBmm3g8p4jJkYLabB1m/VJjDn9G0p7Nm9R8jV0hCNOwJyR2n1i1fNhbmkWAw1t8eKdOlhC6tfhQqF0gCI74uaSUAG7XSlqn2XHh2sYQ4DWL160UOUMSmyaLli4QZK+w/SMWSHbd8kF+dayiy0chwD6u1EAOHOr6YVRrcy7cBYIwrbt5Ai67SzoxQc8q8QiwpnRkvJo4srtHgt7cVEonCE+AlOgZ3NFePzcU3RAIcGaGhcAYIXAFB7l+E6M0z7KlE+SYcJQzBhOSyDAl3IlpxJiOFV6Wc/C8Li0VaWfR6yKlE4Q7S2wujvdKOjzSSS7eDALgflhkVWw9aeMUaKQZk4uXTJCUGRIiihAn6pZG0HElsQhsHJL0xOqxnsJ5/+KkZIJwhuD9kYj56REJWAvFyTECUWKEfV6c+S9OSiYIYXVYTIoRjnj62yMGsebL8ooV+4rLrmpmwoqTkglCeMsYuU7SWjEKLtsKAi+XRLCLGOHY9EtjFOZVtlSCEKg5Npwl58jbCGMzL1/0qR18FxNs+7KQMbg4DEolyKoJH20HSmJa2JIfge9KisnWRYKetfObvbgFpRJkXUm/igTMK+eRgLVYnKf5LhH131bzjElEU3FFSyXIJiEQdExviD3LlnhLfgRiF3hZUS8y01efCLKdpDPzjw1bEGaxYhYMTZDIYZPyikV0EqKUWPIjELui7lesSJ+lfKR7kTAS5BaLxxLEH+mRzkiZ5vWx2kiQWyrOa/sNkmLCl3qaN8EZsQuFNLFlwiJVgmlWmYEA0+2x8ca8UJgwpFLi7v5aEt8vljwIpLwaYykxBwgaXpyUOosFUMyjp0RZ97dIvmF2RWLKA7YIsVWoOCmZICSjvDkRMQIJEHa/U2EuE/taghqnAnnip6yGc8iKs+lFSskEATAiX7C+kSo8TXCcAzekIjhbj93TO0naRxJ53FOEGS/8VKSUThDIAUnqCjFlR1fduoauT+ZcUiJADK46wvFo0iwUm3qidIIA/rckbVvHC2O65DQn0SfvypeEgBAEP7NMR4BXXU538hrE74Y1gsUt2sqxkvYrGfwuEKSpp8g0P9wRPhD5SBxd10u6M1xs3ebvlGnnkn0/so09UASlHl0rBxJABC4yTrUh/5W0QekH3LpAEJxD2NHc+bfvmkCaEXkg0H0NjqKmyIh/WXTltWjab+q3Q93uEkfrkLqVtK3fFYKAQ5PJOtvG1fXPRuAUSTt3AaQuEQQ82dRGrF5LdxHo1JagrhGEYZESK6u7w6lflp8ceZAqe++7SBBAq5tpKjvwAzRgN0knda3fXSUIOL9V0vFdA3yA9t4enhrndLHvXSYIeDMFTKaiptZJuujDkm1mDYuThZ1NmNp1gowGBwSBKHW2pZQ80LpmG8TgdGfnj0D3hSDjRCHtAYSJicvUtQFYqr29IcYI4L4RZNQvVoMhyehastQR1QO72I1LHCyuS3vQn4d0oa8EGe/kmiFfCPuIuNjeYElHgAj6BKgmYQ5hlm5Nr6p8zSEQZFEvLB+ij5O9irD7nJ0e/T6sfJfN1ULIQAJVzozzdODvQaWWGCJBZo0wNuZBmJUkrRhW7cd/l5UEibjIpFT179w43yOJreVszJz0y1TspAu9QUtuxw0afHe+fARMkPJ9ZAszImCCZATfTZePgAlSvo9sYUYETJCM4Lvp8hEwQcr3kS3MiIAJkhF8N10+AiZI+T6yhRkRMEEygu+my0fABCnfR7YwIwImSEbw3XT5CJgg5fvIFmZEwATJCL6bLh8BE6R8H9nCjAiYIBnBd9PlI2CClO8jW5gRARMkI/huunwETJDyfWQLMyJggmQE302Xj4AJUr6PbGFGBEyQjOC76fIRMEHK95EtzIiACZIRfDddPgImSPk+soUZETBBMoLvpstHwAQp30e2MCMCJkhG8N10+QiYIOX7yBZmRMAEyQi+my4fAROkfB/ZwowI/A+WM2TnTsEPJAAAAABJRU5ErkJggg==;" vertex="1" parent="1">
          <mxGeometry x="750" y="500" width="60" height="60" as="geometry" />
        </mxCell>
        <mxCell id="atDhAGsUYtWK8VnYLnzi-74" value="" style="shape=singleArrow;whiteSpace=wrap;html=1;fillColor=none;" vertex="1" parent="1">
          <mxGeometry x="606" y="762" width="160" height="27" as="geometry" />
        </mxCell>
        <mxCell id="atDhAGsUYtWK8VnYLnzi-75" value="商品邀约价信息" style="rounded=0;whiteSpace=wrap;html=1;fillColor=none;strokeColor=none;" vertex="1" parent="1">
          <mxGeometry x="596" y="744" width="160" height="40" as="geometry" />
        </mxCell>
        <mxCell id="atDhAGsUYtWK8VnYLnzi-78" value="" style="shape=singleArrow;direction=west;whiteSpace=wrap;html=1;arrowWidth=0.35714285714287336;arrowSize=0.1486607142857153;fillColor=none;" vertex="1" parent="1">
          <mxGeometry x="606" y="822" width="160" height="28" as="geometry" />
        </mxCell>
        <mxCell id="atDhAGsUYtWK8VnYLnzi-79" value="quota扣减/回补" style="rounded=0;whiteSpace=wrap;html=1;fillColor=none;strokeColor=none;" vertex="1" parent="1">
          <mxGeometry x="606" y="829" width="160" height="40" as="geometry" />
        </mxCell>
        <mxCell id="atDhAGsUYtWK8VnYLnzi-81" value="" style="endArrow=none;dashed=1;html=1;dashPattern=1 3;strokeWidth=2;rounded=0;" edge="1" parent="1">
          <mxGeometry width="50" height="50" relative="1" as="geometry">
            <mxPoint x="-158.5" y="1050" as="sourcePoint" />
            <mxPoint x="-158.5" y="520" as="targetPoint" />
          </mxGeometry>
        </mxCell>
        <mxCell id="atDhAGsUYtWK8VnYLnzi-82" value="商家" style="shape=image;verticalLabelPosition=bottom;labelBackgroundColor=default;verticalAlign=top;aspect=fixed;imageAspect=0;image=data:image/png,iVBORw0KGgoAAAANSUhEUgAAAMgAAADICAYAAACtWK6eAAAAAXNSR0IArs4c6QAAFtRJREFUeF7tnQv0NlVVxh/KTMssTU2zxEtYmiiUkt3TLJEsiwJERTHT1NRIStIKTVPTUKOkxAuIgqJlGgrkBQu8oGGQF0AIEZIQQojEy6JY2vp967z0fsOcM2cuZ2beeZ+91n99a33/mXP2fmY//3PbZ+9dZDECRiCKwC7GxggYgTgCJoi9wwgkEJgDQW4jaTdJ3xf+9QczAisELpF0kaSLJX1+ClimJMgPSXpS+JlSjylwd5/tEThJ0qslndz+1e5vTOWYrzIxun+0LX8Tovy+pPPHwGEKgrxF0v5jGOc+FovApyQdIOm80haOTZC3StqvtFFufysQODf8oS1KkjEJwnrj6K34dDZyLATwpyeX7GxMgnxM0g+XNMZtbx0CX5d0f0lnl7J8LILkjB5s551QylC3u5EI/Iykn27QvOgoMhZBTpH0sIShB0o6cSM/oZUujcBekk6TdKtIR1dLuqeka0ooMgZBOAS8MKH8syT9WQnj3OZiEDhY0rEJaw6SdHwJa8cgyDMkHRlR/qOSHljCMLe5OATwFUaTOnmTpEeXsHgMgpwqae+I8n8s6XklDHObi0PguQlfuTZMs64a2urSBGFueEFCaUYP/jJYjEATAoweKV9hGnZcUyNtf1+aIL8t6c8jSv2zpB9pq7Cf32oEzkxMyYnQeOTQ6JQmyD9IemhE6edLYti0GIFcBP5IEn5TJ9eFaPArcxvLea4kQb5f0qcTSvyopI/kKOlnjEBAgEPBsxJoPEHSMUOiVZIgh0h6RURZjIztSAxpn9taHgIfkvRjEbP+duhYv5IEebekn48Y8gJJhy/v29miERD4A0l/EunnK5LuIemKofQoRZAfaIjX5y8ACy6LEWiLABft/iXxEmFNr2nbaOz5UgT5HUkvj3RK0OIDhjLA7WwlAh+Q9BMRy98uad+hUClFkPdI+rmIkgyP7EZYjEBXBJ4j6YWRl6+XdLeh7rCXIMi9Gm56/bikD3dFxu8ZAUl7SDongcRTJHGtu7eUIMgzJb0sohlzR7bqLEagLwKnS/qpSCPcW39E3w54vwRB3ifpZyPKMSz+4RCKu42tR4DEDS+OoHCDpF0lXd4XpaEJcm9J3BWOCQsr9rEtRqAvAveV9PFEI0+TdFTfToYmyKGSjogoxbVIX7nt+8X8/joC/yiJW4d1Qv6sh/eFa2iCpBR+kSQOeSxGYCgEuGz3kkhj3Ff/Xkn/0aezIQnyg5LIVxSTn5T0wT7K+l0jUEHgPpI+mUCFaPK/6IPakAT53cTVWbbkOAG1GIGhEeC++oMjjRJNnsqF0KjLkAQ5QxKjRJ2w28DhjsUIDI1A6g8zfTHNuqxrp0MRpGmoY7+a8ACLERgagaadU8KeYpf2GnUZiiC/J+mlkd7+VdKejZr4ASPQHYH3SnpI5HV+F4sqb+xxKIIQOsIFqDr5U0nPbtTEDxiB7gikojdolUPDf+/S/BAE2V3SJxKdkxmP9YnFCJRCoOl6BeuUWPhTUqchCJLai+akk8AyixEojUDqgt77E+FPxQmSSujFIQ4xMxYjUBqB1BVv+r6rpEvbKtF3BGmKhyEMgKhLixEojUBTDjY2kmJhUFHd+hLkMEkswuuEdcn9SqPi9o3AGgKpLJ78oY7FbRUjCPc7YifkbPtCIIsRGAuBVB5odOCmIZVzs6XPCMLowBlHTB4k6Z+yNfGDRqA/ApQS/7dEM60rCfQhSOpeMAFkrE8sRmBsBAhz3yfSKcGysXCo2lf6EITRI7bGoN4HbLUYgbER4KLUXyY6vbukz+Yq1ZUgTZfmia7kbojFCIyNAARgmvUNkY5ZF8fCom7ySleCkBWR2h51wp0QTtctRmAqBN6ZuE1IwsJY6tLBCAIJuCBVJ+w1s+dsMQJTIfDUhvvopCe9OEe5LiMIkbmpsrtkNOFo32IEpkKAU3OmWTeLKEDwbOz8bqdXuhCEqVUs8TQZTbgbYjECUyPw95J+KaJEdvGmLgQ5XxLRk3VCxCSRkxYjMDUCT5b01wklODP5TJOSbQnSlFmbSyvcEbYYgakRuEuYZt08ogjneLHEcze+0pYgJJ6Ope45L7Fwnxos97+dCJDp/ZcjpmelwW1LEBY+DE11QrkDEsdZjMBcEKBWyNEJZXaTdFFK2TYEISsitT1iQrkD8vJajMBcECCjyYWSbhFRiNkQCQ2j0oYgbIvFonNZuJNdwmIE5obA30n6lYhSjQlF2hCEgxXCheuEYp1cnLcYgbkh8BsNJdmoxswoUyu5BKFkGnvHMSGtCulVLEZgbgjcORDgWyKKUY4jVq0quz4I0bmx8w1qoVNVymIE5ooA5aF/NaJcMrFI7ghCTiEWPHVC1jqy11mMwFwR+HVJr0sox8H3BXW/zyEICeFSNQUfKominetyR0mPC1G9t5N0e0n86/Sjc3WhzdQL37wq/PynpI9E1ht3CtOsW0XMpKhsbe31HIKwACelSp3AumrYCdvB5Cj6zs3E3FpvOALcGiQXNPVB1uWtkvaL2Ba9AZtDEAqQfHek4SNryJMKEttw7K3+hiBALrZqYZ2DJR2b0J91NOvpnaSJINQUTE2L9g6jxXqjX00czGwIvlZzwxGoqwvyXWGadeuIbUSov6AtQajO8/RIg+wds4dcFeaCrDksRmAqBDgcrNu1OlHSARGlam/CNo0gV0q6Q6RByEOJq6oQ+0IMjMUITIUAu1Z106nHSjouoRTRIESF3CgpgpCFLpV4gdJWDGVVYQgjijJWFmsq0NzvdiDwKklPiZjKzIaZz3dEfv+8aq6FrgQhqpdcqCmh7AGMbBqltuOz2crSCFwv6ayGUhzo8CZJBw5BENYXN1nVh4bJO0SaR4sR2DQEHiPpjRGlSfaw0y3Epr/udXXPvyCJ3a3ak8dNQ8v6biUC75D0iIrlV0siXe5OZaWbCMIowrzskaExaoFw6ujAxK30q8UYzbkes6B9g0UfCsnkTqpa2ESQ1fNERHL7ysmoF+MjNiTs0N4mNRvKJYjRNAJbiYAJspWf3UbnImCC5CLl57YSARNkKz+7jc5FwATJRcrPbSUCJshWfnYbnYuACZKLlJ/bSgRiBOGyyaNClR6ymRBW8rkNQWhdd/IeUauEtKibIOhOmDa3MTm8oozdpulO9DeJEKgCsCmJBJ8YLv6Rd2En3esIQv026iusCyfnpPaZu9Tpjs443DUzVx5y1NV1vK2k/5q57pQ0qxZN4q44IUnRnFMzsanuKi66U+zzgipBqKfAldk62V/S38zEqDo1UrrPPW8wCS34KHVi3cs5XSPuVYIQd/XciD4Mmfx+rpLSnRAZAtHmKugWq8q1yboT7Drne0GpO087dK8SJFV05PWSHj9XD5OUyr7SmIN1YrvA9ZiIDnPXPZUMgSkvVWfnKinduZ57YJUgJPnlPm+dzP0vGVcsMbhOLknkFZ7Dx0uNfpusO6l3YuWY5477jow9VYJQHpfdk010slSxlGslEbU5V2F0JtFenbBAZ6E+V0npjs5s+Fw6U+VTuu+oQFUlCOVxUwVF5nxuUne5a/27zFl3RmeuKNfJ3P8Kp3THHub5p8+UICnddyR+qDoNqRmvSxhDOavYLteUGHBf5bIGBeaq+/dknDHNVfdbSvpKA+5s+jx/SueI9E229y8n9PoFSafU/VVlUXi/yItzXaizB89efErmqjtnH9UsgFU75qo7N/Le1oD7XHeyOJAl63tM+KN7eR1BKIRDOec6YS7PnPK/Z/YXgeTZlIBLyVx15xCW6sCbqDtnNE2Z/ZkicsX1ipn5TEr3syWRY7o2JQ9Xa1Onn78p6dUzMrapduK6qnPT/f4hVU0OnCTje03OgyM9880h6z+lwZvktyT9VdNDI/6emoVULNgz0iflBp8dIwj/f4okEsPVSVb53BGNbZPJ0boP92FwoGQBzLWu2PhhhzQWLTCcVnktNel+48ZCbGeHfLykFo3JXP4Stxk9VrZssu5zGUUoBc5f4DY5mF8sia3TqaVJ951KesQIQgEconhjVaXm8pe4zeix+jCUsqbm4tSyybofJYkka22EzIcUvDmnzUsFnm3SfadiOqmzAWoswPqYkAQ4dnJdwK6bNHmQpDd07GiTdZ96R6sP7hS3IUp2KmG7nAPlmHxG0l7rkd8pgnxbGEWqFaTWG49leC8NwH1D3H6ffqbSnS10ttJTwlkU+MekrnBRHyxy383RvamtEySR/nNsIZKi6coDO7jE9N0oTafLTWsRGtpH0qkjW1str1XtngTFHAJxESYlY+sO3l9r0ImCRaTGjG21r16PZdcv9SlydCeX8xGSXtugxMMlnVxK0Ui7nwg1M2Pd8ntGD6aC2QT5RkmkG92xJ5wQ0s2Tdr60sEhl7p6S1UWdL0p614x0Z3OgCSM+DkVRCc2gzmPTJTWir5vwGOKbpIJY19tf7f6wpRsrQbB6fizd2UqHjLE6N0l9mkYQXsZotn0JK0gJc2PujBB9OrSgJ4urJtDpl6I+qx04HAxHaxJ0J6K2RFBdG90PlcQBFsJc/YwmxUOhGHAvoTvdN61FVyoSzcDogTCd4QQ9FpGxeocI7JK6c4i5wjMFJZEM2HkTySEIL6VSxq83ykeis51SyGd85NQjxMSgPNc3m4QPVL36eZgkDn6aZI66c8D2yibFJVHHnnr1O82fM95LPcKOEw4Wqwy7/m4d7kwB+cPaJFPrznQwOhXPJQhGkriBxWGOMKThlOxadJW7BGLkjBr0wdyd8r91kioBXH1+Ct0ZKWLRvKm7IlXdzwwk6XM1mq19iNEUQrLqO4V76gJeCd0J/GShnav7uZLuk3LQNgShnTYfi+f5YBR3J94oZyHPKLH+8+2Z7GLXJ1a9dNUEjs+iPFfQnR8yc+TovkeYjuLoTEtjZb6q/efo3hZ3Pjy4M81B96bdm666U9GYqNiUbLLuncqjMeVh8dtFWJ+sfpjS7BqCHwmArGZSyW2/zU3Hp4W6ELltrz/HVGD9BwKs9OZf4nvaShvdSZrxlrYdhOcJFFzHfgjdKTTDdnuODKk765t1v+mCe+PIsTKq7Qiyeo+pzGmSbpaDTsFnumT84KCLXRbuvkwpXXTH0QgUzR1ZS9nHYduq+ExuH3PR/Z2SyICTJV0JQuNsn3GSfa+snoZ9iCR2LNw57+giDwxrpNi8v0ubue8wCqH7m3NfqDxHBCrTluyP3LGfute4MsCuExsCXQTduUBVLX/Wpa0u77Q+YO1DEBRkUcS2Kgv4m3fRuMM7HKKxM9U3Idk3BZKgP+c9Ywh/eSFHX93R9ZCQaO5OYygeDi8hR1MUQI46Y+vOGphjgta3YfsSZAUGdwJwNAq1l5LjQxH4odNZsotBwgTiykgkVkJK6c5FJA5P+SlFlE3WnQQkTKe7zjQ6LdJTDrR3qEFNsjBGl77C8T+FFWE+UbglBX0PCHNr7i70FWrJk0KJLVein0sKRGGO/4sDJWpb6c6V1NK4r3RnyjhEcj+iEdi5Y9eyKeSl8ZsMNYLUdcRWJ9dgOc1mvZIjJACA9SQQZljkKu0UAsHZEmbOzOiYs2X7vyG4E9051+Cu9g0TKE9YEEQhpB/cm0IsVipyvYGrpuysbZrulCZn+srBJPqzVhpEShJkXUGuZ3LHhGkA/65+yPm0+iErydR3BWKgEtHMVi75qdhm5IczAGprc8aA7ox2UxCiyREo5X23Gt3XsWeU+FJTQxP8vk53zo3Ytr5y7afpnKez6mMRpLOCftEITImACTIl+u579giYILP/RFZwSgRMkCnRd9+zR2Aqguwe7juwqL14g0p1zf6DLlhBNkjI2caFOHxmFJmCIIeHcIV1Awmd4JTWYgTqEKgGO46WVWdsgrA3z357VTj/IMx9rtu8dtvpEIhdVeYAFuIUlbEJQkr510Usmlt6yqLAu/FsBIhejt34u7ek87Nb6vDg2ARJXZ7xNKvDB9yCV1J1X4rXHjFBtsDDNtxEEyR8QI8gG+7JhdQ3QUyQQq61jGZNEBNkGZ5cyAoTxAQp5FrLaNYEMUGW4cmFrDBBTJBCrrWMZk0QE2QZnlzIChPEBCnkWsto1gQxQZbhyYWsMEFMkEKutYxmTRATZBmeXMgKE8QEKeRay2jWBDFBluHJhawwQUyQQq61jGZNEBNkGZ5cyAoTxAQp5FrLaNYEMUGW4cmFrDBBTJBCrrWMZk0QE2QZnlzIChPEBCnkWsto1gQxQZbhyYWsMEFMkEKutYxmTRATZBmeXMgKE8QEKeRay2jWBDFBluHJhawwQUyQQq61jGZNEBNkGZ5cyAoTxAQp5FrLaNYEMUGW4cmFrDBBTJBCrrWMZk0QE2QZnlzIChPEBCnkWsto1gQxQZbhyYWsMEECsFS5pYiOxQisI2CCmCBbw4i9JR0s6VRJx2VabYKYIJmustmPVQu45pbcM0FMkM32/Azt66obXy7pzhnvmiAmSIabbO4jsdLfb5b0qAyzTBATJMNNNvORGDnOlbS/pPMyzDJBTJAMN9m8R2LkOD+Q41OZJpkgJkimq2zOYzFyXCBpP0mfbGGKCWKCtHCX+T8aI8eFYeT4eEsTTBATpKXLzPfxGDkuCuQ4p4PqJogJ0sFt5vdKjBwXh2nV2R1VNkFMkI6uM5/XYuT4bBg5PtZDVRPEBOnhPtO/GiPHpWHkOKuniiaICdLThaZ7PUaOzwVyfHQA1UwQE2QANxq/iRg5LgvTqjMHUskEMUEGcqXxmomRg/gqzjk+nFCFd58kiXXJSyV9sEFtE8QEGc+zB+gpRo4rAjlSDn+ipAPWdMD5H2yC/D8CMXB5whemBvDewk3Evt+VYVp1RqL/4yU9uvL7qyXdzgQxQQr77SjNx8hxVRg5Tk9o8XpJj6v5PaQ5yAQxQUbx4IKdxMjBCMCag6lSTF4r6Qk1v8yN6PUaxGuQgq7dv+kYOa4J06rTEl0cHRbk1UdyycF7JogJ0t+LC7UQI8e1YeR4X6LfoyQ9tcfIsXrVBDFBCrl3v2Zj5PhiIMd7Es0fKekZA5DDI8gaiN7F6ufQQ74dI8eXJP2apHcnOnuZpGcORA4TxAQZ0q8HaStGji+HkYOUPTF5iaRnDUgOE8QEGcSph2okRo6vBnKcnOjohZKeMzA5TBATZCjf7t1OjBzXh2nVuxI9MD0+vAA5TBATpLdjD9FAjBz/E0aOkxKd3FMSd82r0mYrN2WDd7ECOl6kD+Hq3dq4RNKulVdvCOR4R0OTj5d0TOWZocjhEcQjSDePHvCt3SSRUGFdvhamVW/P6OcWkj69RrAhyWGCmCAZLlj+kfdKekjo5uth5Hhbi27vGjLzE8nLiPOFFu82PeoplqdYTT5S/Pe3lfQwSaw5uOjEpae5iAligszFF2ephwligszSMeeilAligszFF2epx1YR5FBJR0Q+A/eTD5vlJ7JSUyJAwrk9Iwo8INxtL6bfLsVarm/4QZLeH+mTLcV9R9bH3c0bgTtI4ozmljVqstvG/3PSX0zGJsgdJX0+Yc1jJJ1QzFo3vGkIvELSIRGlSYK9R2mDxiYI9hCWQHhCTDiV/UD4y1Hafrc/TwTuEW4i7pVQ742SHlta/SkIErtpVtpWt78sBEgC8YbSJk1BkG+VRFLj25c2zu0vFoFXSnr6GNZNQRDsolb2sWMY6D4WicCtJV03hmVTEQTbuHyzzxhGuo9FIUAeLfJpjSJTEgQDIUjqltooILiTjUCAjPGQI5WgbnBDpiYIBpF68kWSnji4dW5wKQi8XBKHzKPLHAiyMvruknZf++GQyLKdCHA/hRN0SkbzQ3rTSWROBJkEAHdqBFII/B8YKbAFsM2uYgAAAABJRU5ErkJggg==;" vertex="1" parent="1">
          <mxGeometry x="-320" y="505" width="50" height="50" as="geometry" />
        </mxCell>
        <mxCell id="atDhAGsUYtWK8VnYLnzi-92" value="" style="shape=singleArrow;whiteSpace=wrap;html=1;fillColor=none;" vertex="1" parent="1">
          <mxGeometry x="-271" y="780" width="160" height="27" as="geometry" />
        </mxCell>
        <mxCell id="atDhAGsUYtWK8VnYLnzi-94" value="" style="shape=singleArrow;direction=west;whiteSpace=wrap;html=1;arrowWidth=0.35714285714287336;arrowSize=0.1486607142857153;fillColor=none;" vertex="1" parent="1">
          <mxGeometry x="-271" y="726" width="160" height="28" as="geometry" />
        </mxCell>
        <mxCell id="atDhAGsUYtWK8VnYLnzi-95" value="邀约商品列表/详情" style="rounded=0;whiteSpace=wrap;html=1;fillColor=none;strokeColor=none;" vertex="1" parent="1">
          <mxGeometry x="-271" y="726" width="160" as="geometry" />
        </mxCell>
        <mxCell id="atDhAGsUYtWK8VnYLnzi-98" value="确认/拒绝邀约" style="rounded=0;whiteSpace=wrap;html=1;fillColor=none;strokeColor=none;" vertex="1" parent="1">
          <mxGeometry x="-274" y="783" width="160" as="geometry" />
        </mxCell>
        <mxCell id="atDhAGsUYtWK8VnYLnzi-99" value="" style="shape=singleArrow;direction=west;whiteSpace=wrap;html=1;arrowWidth=0.35714285714287336;arrowSize=0.1486607142857153;fillColor=none;" vertex="1" parent="1">
          <mxGeometry x="-271" y="833" width="160" height="28" as="geometry" />
        </mxCell>
        <mxCell id="atDhAGsUYtWK8VnYLnzi-100" value="消耗情况" style="rounded=0;whiteSpace=wrap;html=1;fillColor=none;strokeColor=none;" vertex="1" parent="1">
          <mxGeometry x="-271" y="835" width="160" as="geometry" />
        </mxCell>
        <mxCell id="atDhAGsUYtWK8VnYLnzi-102" value="CSP" style="rounded=0;whiteSpace=wrap;html=1;fillColor=#dae8fc;strokeColor=#6c8ebf;strokeWidth=2;opacity=50;" vertex="1" parent="1">
          <mxGeometry x="-389" y="664" width="114" height="360" as="geometry" />
        </mxCell>
      </root>
    </mxGraphModel>
  </diagram>
</mxfile>
